# Made in Blockbench 4.9.4
mtllib Arrow.mtl

o cuboid
v 0.3125 0.0625 0.5
v 0.3125 0.0625 -1.5
v 0.3125 0 0.5
v 0.3125 0 -1.5
v -0.3125 0.0625 0.5
v -0.3125 0.0625 -1.5
v -0.3125 0 0.5
v -0.3125 0 -1.5
vt 0.5234375 0.8046875
vt 0.2734375 0.8046875
vt 0.2734375 0.796875
vt 0.5234375 0.796875
vt 0.5234375 0.7890625
vt 0.5234375 0.796875
vt 0.2734375 0.796875
vt 0.2734375 0.7890625
vt 0 0.75
vt 0.078125 0.75
vt 0.078125 1
vt 0 1
vt 0.15625 0.75
vt 0.15625 1
vt 0.078125 1
vt 0.078125 0.75
vt 0.1328125 0.7421875
vt 0.1328125 0.75
vt 0.0546875 0.75
vt 0.0546875 0.7421875
vt 0.140625 0.7421875
vt 0.0625 0.7421875
vt 0.0625 0.734375
vt 0.140625 0.734375
vn 1 0 0
vn -1 0 0
vn 0 1 0
vn 0 -1 0
vn 0 0 1
vn 0 0 -1
usemtl m_7eaa51b6-80e2-3d09-584d-29600681ea0b
f 2/1/1 1/2/1 3/3/1 4/4/1
f 7/5/2 5/6/2 6/7/2 8/8/2
f 5/9/3 1/10/3 2/11/3 6/12/3
f 4/13/4 3/14/4 7/15/4 8/16/4
f 3/17/5 1/18/5 5/19/5 7/20/5
f 6/21/6 2/22/6 4/23/6 8/24/6
o cuboid
v 0.00625 0.0625 1.5
v 0.625 0.0625 0.5
v 0.00625 0 1.5
v 0.625 0 0.5
v -0.00625 0.0625 1.5
v -0.625 0.0625 0.5
v -0.00625 0 1.5
v -0.625 0 0.5
vt 0.4296875 0.78125
vt 0.28125 0.78125
vt 0.28125 0.7734375
vt 0.4296875 0.7734375
vt 0.4375 0.953125
vt 0.4375 0.9609375
vt 0.2890625 0.9609375
vt 0.2890625 0.953125
vt 0.23359375 0.875
vt 0.23515625 0.875
vt 0.3125 1
vt 0.15625 1
vt 0.3046875 0.734375
vt 0.22734375 0.859375
vt 0.22578125 0.859375
vt 0.1484375 0.734375
vt 0.1796875 0.9296875
vt 0.1796875 0.9375
vt 0.171875 0.9375
vt 0.171875 0.9296875
vt 0.4375 0.7890625
vt 0.28125 0.7890625
vt 0.28125 0.78125
vt 0.4375 0.78125
vn 0.8503783946149224 0 0.5261716316679832
vn -0.8503783946149224 0 0.5261716316679832
vn 0 1 0
vn 0 -1 0
vn 0 0 1
vn 0 0 -1
usemtl m_7eaa51b6-80e2-3d09-584d-29600681ea0b
f 10/25/7 9/26/7 11/27/7 12/28/7
f 15/29/8 13/30/8 14/31/8 16/32/8
f 13/33/9 9/34/9 10/35/9 14/36/9
f 12/37/10 11/38/10 15/39/10 16/40/10
f 11/41/11 9/42/11 13/43/11 15/44/11
f 14/45/12 10/46/12 12/47/12 16/48/12
o cuboid
v -0.25 0.25 0.5
v -0.25 0.25 -1.5
v -0.25 0.0625 0.5
v -0.25 0.0625 -1.5
v -0.3125 0.25 0.5
v -0.3125 0.25 -1.5
v -0.3125 0.0625 0.5
v -0.3125 0.0625 -1.5
vt 0.484375 0.875
vt 0.234375 0.875
vt 0.234375 0.8515625
vt 0.484375 0.8515625
vt 0.5 0.875
vt 0.5 0.8984375
vt 0.25 0.8984375
vt 0.25 0.875
vt 0.15625 0.4609375
vt 0.1640625 0.4609375
vt 0.1640625 0.7109375
vt 0.15625 0.7109375
vt 0.171875 0.4609375
vt 0.171875 0.7109375
vt 0.1640625 0.7109375
vt 0.1640625 0.4609375
vt 0.1796875 0.9375
vt 0.1796875 0.9609375
vt 0.171875 0.9609375
vt 0.171875 0.9375
vt 0.1875 0.9453125
vt 0.1796875 0.9453125
vt 0.1796875 0.921875
vt 0.1875 0.921875
vn 1 0 0
vn -1 0 0
vn 0 1 0
vn 0 -1 0
vn 0 0 1
vn 0 0 -1
usemtl m_7eaa51b6-80e2-3d09-584d-29600681ea0b
f 18/49/13 17/50/13 19/51/13 20/52/13
f 23/53/14 21/54/14 22/55/14 24/56/14
f 21/57/15 17/58/15 18/59/15 22/60/15
f 20/61/16 19/62/16 23/63/16 24/64/16
f 19/65/17 17/66/17 21/67/17 23/68/17
f 22/69/18 18/70/18 20/71/18 24/72/18
o cuboid
v 0.3125 0.25 0.5
v 0.3125 0.25 -1.5
v 0.3125 0.0625 0.5
v 0.3125 0.0625 -1.5
v 0.25 0.25 0.5
v 0.25 0.25 -1.5
v 0.25 0.0625 0.5
v 0.25 0.0625 -1.5
vt 0.5 0.8515625
vt 0.25 0.8515625
vt 0.25 0.828125
vt 0.5 0.828125
vt 0.515625 0.8984375
vt 0.515625 0.921875
vt 0.265625 0.921875
vt 0.265625 0.8984375
vt 0.171875 0.4609375
vt 0.1796875 0.4609375
vt 0.1796875 0.7109375
vt 0.171875 0.7109375
vt 0.1875 0.4609375
vt 0.1875 0.7109375
vt 0.1796875 0.7109375
vt 0.1796875 0.4609375
vt 0.171875 0.7890625
vt 0.171875 0.8125
vt 0.1640625 0.8125
vt 0.1640625 0.7890625
vt 0.1796875 0.8125
vt 0.171875 0.8125
vt 0.171875 0.7890625
vt 0.1796875 0.7890625
vn 1 0 0
vn -1 0 0
vn 0 1 0
vn 0 -1 0
vn 0 0 1
vn 0 0 -1
usemtl m_7eaa51b6-80e2-3d09-584d-29600681ea0b
f 26/73/19 25/74/19 27/75/19 28/76/19
f 31/77/20 29/78/20 30/79/20 32/80/20
f 29/81/21 25/82/21 26/83/21 30/84/21
f 28/85/22 27/86/22 31/87/22 32/88/22
f 27/89/23 25/90/23 29/91/23 31/92/23
f 30/93/24 26/94/24 28/95/24 32/96/24
o cuboid
v 0.25000000000000033 0.25 -1.5
v -0.24999999999999967 0.25 -1.5
v 0.25000000000000033 0.0625 -1.5
v -0.24999999999999967 0.0625 -1.5
v 0.25000000000000033 0.25 -1.4375
v -0.24999999999999967 0.25 -1.4375
v 0.25000000000000033 0.0625 -1.4375
v -0.24999999999999967 0.0625 -1.4375
vt 0.21875 0.8984375
vt 0.15625 0.8984375
vt 0.15625 0.875
vt 0.21875 0.875
vt 0.21875 0.8515625
vt 0.21875 0.875
vt 0.15625 0.875
vt 0.15625 0.8515625
vt 0.15625 0.921875
vt 0.1640625 0.921875
vt 0.1640625 0.984375
vt 0.15625 0.984375
vt 0.1640625 0.765625
vt 0.1640625 0.828125
vt 0.15625 0.828125
vt 0.15625 0.765625
vt 0.2265625 0.859375
vt 0.2265625 0.8828125
vt 0.21875 0.8828125
vt 0.21875 0.859375
vt 0.3046875 0.7734375
vt 0.296875 0.7734375
vt 0.296875 0.75
vt 0.3046875 0.75
vn 2.220446049250313e-16 0 -1
vn -2.220446049250313e-16 0 1
vn 0 1 0
vn 0 -1 0
vn 1 0 2.220446049250313e-16
vn -1 0 -2.220446049250313e-16
usemtl m_7eaa51b6-80e2-3d09-584d-29600681ea0b
f 34/97/25 33/98/25 35/99/25 36/100/25
f 39/101/26 37/102/26 38/103/26 40/104/26
f 37/105/27 33/106/27 34/107/27 38/108/27
f 36/109/28 35/110/28 39/111/28 40/112/28
f 35/113/29 33/114/29 37/115/29 39/116/29
f 38/117/30 34/118/30 36/119/30 40/120/30
o cuboid
v 0.6249999999999999 0.25 0.5000000000000001
v 0.2499999999999999 0.25 0.5
v 0.6249999999999999 0.0625 0.5000000000000001
v 0.2499999999999999 0.0625 0.5
v 0.5874999999999998 0.25 0.5625000000000001
v 0.2499999999999999 0.25 0.5625
v 0.5874999999999998 0.0625 0.5625000000000001
v 0.2499999999999999 0.0625 0.5625
vt 0.203125 0.921875
vt 0.15625 0.921875
vt 0.15625 0.8984375
vt 0.203125 0.8984375
vt 0.2890625 0.65625
vt 0.2890625 0.6796875
vt 0.25 0.6796875
vt 0.25 0.65625
vt 0.1640625 0.9265625
vt 0.171875 0.921875
vt 0.171875 0.96875
vt 0.1640625 0.96875
vt 0.1953125 0.5859375
vt 0.1953125 0.6328125
vt 0.1875 0.628125
vt 0.1875 0.5859375
vt 0.0703125 0.671875
vt 0.0703125 0.6953125
vt 0.0625 0.6953125
vt 0.0625 0.671875
vt 0.3125 0.984375
vt 0.3046875 0.984375
vt 0.3046875 0.9609375
vt 0.3125 0.9609375
vn 2.220446049250313e-16 0 -1
vn -2.220446049250313e-16 0 1
vn 0 1 0
vn 0 -1 0
vn 0.8574929257125435 0 0.5144957554275276
vn -1 0 -2.220446049250313e-16
usemtl m_7eaa51b6-80e2-3d09-584d-29600681ea0b
f 42/121/31 41/122/31 43/123/31 44/124/31
f 47/125/32 45/126/32 46/127/32 48/128/32
f 45/129/33 41/130/33 42/131/33 46/132/33
f 44/133/34 43/134/34 47/135/34 48/136/34
f 43/137/35 41/138/35 45/139/35 47/140/35
f 46/141/36 42/142/36 44/143/36 48/144/36
o cuboid
v -0.6250000258095675 0.06250000112579744 0.49999996759731413
v -0.25000002580956804 0.06250000112579748 0.49999998695449044
v -0.6250000258095675 0.25000000112579746 0.49999996717514006
v -0.25000002580956804 0.25000000112579746 0.49999998653231637
v -0.5875000290357636 0.06250000126652214 0.5624999695330317
v -0.25000002903576407 0.06250000126652218 0.5624999869544904
v -0.5875000290357636 0.25000000126652216 0.5624999691108576
v -0.25000002903576407 0.25000000126652216 0.5624999865323164
vt 0.203125 0.8515625
vt 0.15625 0.8515625
vt 0.15625 0.828125
vt 0.203125 0.828125
vt 0.328125 0.65625
vt 0.328125 0.6796875
vt 0.2890625 0.6796875
vt 0.2890625 0.65625
vt 0.1953125 0.590625
vt 0.203125 0.5859375
vt 0.203125 0.6328125
vt 0.1953125 0.6328125
vt 0.2109375 0.5859375
vt 0.2109375 0.6328125
vt 0.203125 0.628125
vt 0.203125 0.5859375
vt 0.0390625 0.640625
vt 0.0390625 0.6640625
vt 0.03125 0.6640625
vt 0.03125 0.640625
vt 0.078125 0.6875
vt 0.0703125 0.6875
vt 0.0703125 0.6640625
vt 0.078125 0.6640625
vn 5.161913674278651e-8 -2.2515950329830833e-9 -0.9999999999999987
vn -5.161913674278651e-8 2.2515950329830833e-9 0.9999999999999987
vn -1.315473630667449e-25 -1 2.2515950329830866e-9
vn 1.315473630667449e-25 1 -2.2515950329830866e-9
vn -0.8574929522703693 1.1584359877490483e-9 0.5144957111644821
vn 0.9999999999999987 1.1622539189693283e-16 5.161913674278651e-8
usemtl m_7eaa51b6-80e2-3d09-584d-29600681ea0b
f 50/145/37 49/146/37 51/147/37 52/148/37
f 55/149/38 53/150/38 54/151/38 56/152/38
f 53/153/39 49/154/39 50/155/39 54/156/39
f 52/157/40 51/158/40 55/159/40 56/160/40
f 51/161/41 49/162/41 53/163/41 55/164/41
f 54/165/42 50/166/42 52/167/42 56/168/42
o cuboid
v -0.5875000000000001 0.25 0.5625
v 0.5874999999999992 0.25 0.5624999999999998
v -0.5875000000000001 0.0625 0.5625
v 0.5874999999999992 0.0625 0.5624999999999998
v -0.5187500000000002 0.25 0.5625
v 0.5125 0.25 0.5624999999999998
v -0.5187500000000002 0.0625 0.5625
v 0.5125 0.0625 0.5624999999999998
v 0 0.25 1.3812499999999999
v 0 0.0625 1.3812499999999999
v 1.1102230246251565e-16 0.0625 1.5
v 1.1102230246251565e-16 0.25 1.5
vt 0.40625 0.828125
vt 0.265625 0.828125
vt 0.265625 0.8046875
vt 0.40625 0.8046875
vt 0.28125 0.921875
vt 0.3984375 0.921875
vt 0.3984375 0.9453125
vt 0.28125 0.9453125
vt 0 0.740625
vt 0.10234375 0.6765625
vt 0.1171875 0.6765625
vt 0 0.75
vt 0.0390625 0.6015625
vt 0.15625 0.675
vt 0.14140625 0.675
vt 0.0390625 0.6109374999999999
vt 0.15625 0.640625
vt 0.15625 0.6640625
vt 0.1484375 0.6640625
vt 0.1484375 0.640625
vt 0.0078125 0.640625
vt 0 0.640625
vt 0 0.6171875
vt 0.0078125 0.6171875
vt 0.3671875 0.734375
vt 0.2421875 0.734375
vt 0.2421875 0.7109375
vt 0.3671875 0.7109375
vt 0.0390625 0.7398437499999999
vt 0.14140625 0.675
vt 0.15625 0.675
vt 0.0390625 0.7484375
vt 0.1015625 0.7109375
vt 0.2421875 0.7109375
vt 0.2421875 0.734375
vt 0.1015625 0.734375
vt 0 0.603125
vt 0.1171875 0.6765625
vt 0.10234375 0.6765625
vt 0 0.61171875
vn 0.8473629670676086 0 0.531014126029034
vn -0.8476345937005708 0 -0.5305804326980672
vn 0 1 0
vn 0 -1 0
vn -2.220446049250313e-16 0 -1
vn -2.220446049250313e-16 0 -1
vn 0.8447219030871009 0 -0.535205480581904
vn 0 -1 0
vn -0.8473629670676082 0 0.5310141260290347
vn 0 1 0
usemtl m_7eaa51b6-80e2-3d09-584d-29600681ea0b
f 58/169/43 68/170/43 67/171/43 60/172/43
f 64/173/44 66/174/44 65/175/44 62/176/44
f 62/177/45 65/178/45 68/179/45 58/180/45
f 60/181/46 67/182/46 66/183/46 64/184/46
f 59/185/47 57/186/47 61/187/47 63/188/47
f 62/189/48 58/190/48 60/191/48 64/192/48
f 61/193/49 65/194/49 66/195/49 63/196/49
f 63/197/50 66/198/50 67/199/50 59/200/50
f 59/201/51 67/202/51 68/203/51 57/204/51
f 57/205/52 68/206/52 65/207/52 61/208/52
o cuboid
v 0.125 0.125 -1.0625
v 0.125 0.125 -1.3125
v 0.125 0 -1.0625
v 0.125 0 -1.3125
v -0.125 0.125 -1.0625
v -0.125 0.125 -1.3125
v -0.125 0 -1.0625
v -0.125 0 -1.3125
v 0.125 0.125 -0.625
v 0.125 0.125 -0.875
v 0.125 0 -0.625
v 0.125 0 -0.875
v -0.125 0.125 -0.625
v -0.125 0.125 -0.875
v -0.125 0 -0.625
v -0.125 0 -0.875
v 0.125 0.125 -0.1875
v 0.125 0.125 -0.4375
v 0.125 0 -0.1875
v 0.125 0 -0.4375
v -0.125 0.125 -0.1875
v -0.125 0.125 -0.4375
v -0.125 0 -0.1875
v -0.125 0 -0.4375
v 0.125 0.125 0.25
v 0.125 0.125 0
v 0.125 0 0.25
v 0.125 0 0
v -0.125 0.125 0.25
v -0.125 0.125 0
v -0.125 0 0.25
v -0.125 0 0
v 0.125 0.125 0.6875
v 0.125 0.125 0.4375
v 0.125 0 0.6875
v 0.125 0 0.4375
v -0.125 0.125 0.6875
v -0.125 0.125 0.4375
v -0.125 0 0.6875
v -0.125 0 0.4375
v 0.125 0.125 1.125
v 0.125 0.125 0.875
v 0.125 0 1.125
v 0.125 0 0.875
v -0.125 0.125 1.125
v -0.125 0.125 0.875
v -0.125 0 1.125
v -0.125 0 0.875
vt 0.1953125 0.828125
vt 0.1640625 0.828125
vt 0.1640625 0.8125
vt 0.1953125 0.8125
vt 0.15625 0.6953125
vt 0.15625 0.7109375
vt 0.125 0.7109375
vt 0.125 0.6953125
vt 0 0.6875
vt 0.03125 0.6875
vt 0.03125 0.71875
vt 0 0.71875
vt 0.21875 0.6796875
vt 0.21875 0.7109375
vt 0.1875 0.7109375
vt 0.1875 0.6796875
vt 0.359375 0.6640625
vt 0.359375 0.6796875
vt 0.328125 0.6796875
vt 0.328125 0.6640625
vt 0.3671875 0.7734375
vt 0.3359375 0.7734375
vt 0.3359375 0.7578125
vt 0.3671875 0.7578125
vt 0.3671875 0.7578125
vt 0.3359375 0.7578125
vt 0.3359375 0.7421875
vt 0.3671875 0.7421875
vt 0.359375 0.6484375
vt 0.359375 0.6640625
vt 0.328125 0.6640625
vt 0.328125 0.6484375
vt 0.21875 0.6796875
vt 0.25 0.6796875
vt 0.25 0.7109375
vt 0.21875 0.7109375
vt 0.28125 0.6796875
vt 0.28125 0.7109375
vt 0.25 0.7109375
vt 0.25 0.6796875
vt 0.03125 0.640625
vt 0.03125 0.65625
vt 0 0.65625
vt 0 0.640625
vt 0.375 1
vt 0.34375 1
vt 0.34375 0.984375
vt 0.375 0.984375
vt 0.375 0.984375
vt 0.34375 0.984375
vt 0.34375 0.96875
vt 0.375 0.96875
vt 0.28125 0.640625
vt 0.28125 0.65625
vt 0.25 0.65625
vt 0.25 0.640625
vt 0.28125 0.6796875
vt 0.3125 0.6796875
vt 0.3125 0.7109375
vt 0.28125 0.7109375
vt 0.0625 0.6640625
vt 0.0625 0.6953125
vt 0.03125 0.6953125
vt 0.03125 0.6640625
vt 0.3125 0.640625
vt 0.3125 0.65625
vt 0.28125 0.65625
vt 0.28125 0.640625
vt 0.375 0.7109375
vt 0.34375 0.7109375
vt 0.34375 0.6953125
vt 0.375 0.6953125
vt 0.375 0.6953125
vt 0.34375 0.6953125
vt 0.34375 0.6796875
vt 0.375 0.6796875
vt 0.1484375 0.6328125
vt 0.1484375 0.6484375
vt 0.1171875 0.6484375
vt 0.1171875 0.6328125
vt 0.3046875 0.7421875
vt 0.3359375 0.7421875
vt 0.3359375 0.7734375
vt 0.3046875 0.7734375
vt 0.03125 0.65625
vt 0.03125 0.6875
vt 0 0.6875
vt 0 0.65625
vt 0.21875 0.6328125
vt 0.21875 0.6484375
vt 0.1875 0.6484375
vt 0.1875 0.6328125
vt 0.25 0.6484375
vt 0.21875 0.6484375
vt 0.21875 0.6328125
vt 0.25 0.6328125
vt 0.34375 0.6484375
vt 0.3125 0.6484375
vt 0.3125 0.6328125
vt 0.34375 0.6328125
vt 0.375 0.6328125
vt 0.375 0.6484375
vt 0.34375 0.6484375
vt 0.34375 0.6328125
vt 0.3125 0.96875
vt 0.34375 0.96875
vt 0.34375 1
vt 0.3125 1
vt 0.34375 0.6796875
vt 0.34375 0.7109375
vt 0.3125 0.7109375
vt 0.3125 0.6796875
vt 0.28125 0.625
vt 0.28125 0.640625
vt 0.25 0.640625
vt 0.25 0.625
vt 0.3125 0.640625
vt 0.28125 0.640625
vt 0.28125 0.625
vt 0.3125 0.625
vt 0.390625 0.6796875
vt 0.359375 0.6796875
vt 0.359375 0.6640625
vt 0.390625 0.6640625
vt 0.390625 0.6484375
vt 0.390625 0.6640625
vt 0.359375 0.6640625
vt 0.359375 0.6484375
vt 0.1875 0.6484375
vt 0.21875 0.6484375
vt 0.21875 0.6796875
vt 0.1875 0.6796875
vt 0.25 0.6484375
vt 0.25 0.6796875
vt 0.21875 0.6796875
vt 0.21875 0.6484375
vt 0.125 0.6171875
vt 0.125 0.6328125
vt 0.09375 0.6328125
vt 0.09375 0.6171875
vt 0.15625 0.6328125
vt 0.125 0.6328125
vt 0.125 0.6171875
vt 0.15625 0.6171875
vn 1 0 0
vn -1 0 0
vn 0 1 0
vn 0 -1 0
vn 0 0 1
vn 0 0 -1
vn 1 0 0
vn -1 0 0
vn 0 1 0
vn 0 -1 0
vn 0 0 1
vn 0 0 -1
vn 1 0 0
vn -1 0 0
vn 0 1 0
vn 0 -1 0
vn 0 0 1
vn 0 0 -1
vn 1 0 0
vn -1 0 0
vn 0 1 0
vn 0 -1 0
vn 0 0 1
vn 0 0 -1
vn 1 0 0
vn -1 0 0
vn 0 1 0
vn 0 -1 0
vn 0 0 1
vn 0 0 -1
vn 1 0 0
vn -1 0 0
vn 0 1 0
vn 0 -1 0
vn 0 0 1
vn 0 0 -1
usemtl m_7eaa51b6-80e2-3d09-584d-29600681ea0b
f 70/209/53 69/210/53 71/211/53 72/212/53
f 75/213/54 73/214/54 74/215/54 76/216/54
f 73/217/55 69/218/55 70/219/55 74/220/55
f 72/221/56 71/222/56 75/223/56 76/224/56
f 71/225/57 69/226/57 73/227/57 75/228/57
f 74/229/58 70/230/58 72/231/58 76/232/58
f 78/233/59 77/234/59 79/235/59 80/236/59
f 83/237/60 81/238/60 82/239/60 84/240/60
f 81/241/61 77/242/61 78/243/61 82/244/61
f 80/245/62 79/246/62 83/247/62 84/248/62
f 79/249/63 77/250/63 81/251/63 83/252/63
f 82/253/64 78/254/64 80/255/64 84/256/64
f 86/257/65 85/258/65 87/259/65 88/260/65
f 91/261/66 89/262/66 90/263/66 92/264/66
f 89/265/67 85/266/67 86/267/67 90/268/67
f 88/269/68 87/270/68 91/271/68 92/272/68
f 87/273/69 85/274/69 89/275/69 91/276/69
f 90/277/70 86/278/70 88/279/70 92/280/70
f 94/281/71 93/282/71 95/283/71 96/284/71
f 99/285/72 97/286/72 98/287/72 100/288/72
f 97/289/73 93/290/73 94/291/73 98/292/73
f 96/293/74 95/294/74 99/295/74 100/296/74
f 95/297/75 93/298/75 97/299/75 99/300/75
f 98/301/76 94/302/76 96/303/76 100/304/76
f 102/305/77 101/306/77 103/307/77 104/308/77
f 107/309/78 105/310/78 106/311/78 108/312/78
f 105/313/79 101/314/79 102/315/79 106/316/79
f 104/317/80 103/318/80 107/319/80 108/320/80
f 103/321/81 101/322/81 105/323/81 107/324/81
f 106/325/82 102/326/82 104/327/82 108/328/82
f 110/329/83 109/330/83 111/331/83 112/332/83
f 115/333/84 113/334/84 114/335/84 116/336/84
f 113/337/85 109/338/85 110/339/85 114/340/85
f 112/341/86 111/342/86 115/343/86 116/344/86
f 111/345/87 109/346/87 113/347/87 115/348/87
f 114/349/88 110/350/88 112/351/88 116/352/88