# Made in Blockbench 4.9.3
mtllib Barrier.mtl

o cuboid
v 0.5 0.8125 0.0625
v 0.5 0.8125 -0.0625
v 0.5 0.625 0.0625
v 0.5 0.625 -0.0625
v -0.5 0.8125 0.0625
v -0.5 0.8125 -0.0625
v -0.5 0.625 0.0625
v -0.5 0.625 -0.0625
vt 0.296875 0.90625
vt 0.265625 0.90625
vt 0.265625 0.859375
vt 0.296875 0.859375
vt 0.296875 0.796875
vt 0.296875 0.84375
vt 0.265625 0.84375
vt 0.265625 0.796875
vt 0.25 0.875
vt 0 0.875
vt 0 0.84375
vt 0.25 0.84375
vt 0.25 0.796875
vt 0.25 0.828125
vt 0 0.828125
vt 0 0.796875
vt 0.25 0.953125
vt 0.25 1
vt 0 1
vt 0 0.953125
vt 0.25 0.9375
vt 0 0.9375
vt 0 0.890625
vt 0.25 0.890625
vn 1 0 0
vn -1 0 0
vn 0 1 0
vn 0 -1 0
vn 0 0 1
vn 0 0 -1
usemtl m_561be77a-e75e-e24f-8a9b-edaaa7c6f858
f 2/1/1 1/2/1 3/3/1 4/4/1
f 7/5/2 5/6/2 6/7/2 8/8/2
f 5/9/3 1/10/3 2/11/3 6/12/3
f 4/13/4 3/14/4 7/15/4 8/16/4
f 3/17/5 1/18/5 5/19/5 7/20/5
f 6/21/6 2/22/6 4/23/6 8/24/6
o cuboid
v -0.06250000000000067 0.6249999999999993 0.03125
v -0.06250000000000067 0.6249999999999993 -0.03125
v 0.062499999999999334 0.6249999999999996 0.03125
v 0.062499999999999334 0.6249999999999996 -0.03125
v -0.062499999999999334 -0.37500000000000067 0.03125
v -0.062499999999999334 -0.37500000000000067 -0.03125
v 0.06250000000000067 -0.37500000000000044 0.03125
v 0.06250000000000067 -0.37500000000000044 -0.03125
vt 0.296875 0.78125
vt 0.265625 0.78125
vt 0.265625 0.75
vt 0.296875 0.75
vt 0.296875 0.703125
vt 0.296875 0.734375
vt 0.265625 0.734375
vt 0.265625 0.703125
vt 0 0.75
vt 0.25 0.75
vt 0.25 0.78125
vt 0 0.78125
vt 0.25 0.703125
vt 0.25 0.734375
vt 0 0.734375
vt 0 0.703125
vt 0.515625 0.96875
vt 0.515625 1
vt 0.265625 1
vt 0.265625 0.96875
vt 0.515625 0.953125
vt 0.265625 0.953125
vt 0.265625 0.921875
vt 0.515625 0.921875
vn -2.220446049250313e-15 1 0
vn 2.220446049250313e-15 -1 0
vn -1 -1.3322676295501878e-15 0
vn 1 1.3322676295501878e-15 0
vn 0 0 1
vn 0 0 -1
usemtl m_561be77a-e75e-e24f-8a9b-edaaa7c6f858
f 10/25/7 9/26/7 11/27/7 12/28/7
f 15/29/8 13/30/8 14/31/8 16/32/8
f 13/33/9 9/34/9 10/35/9 14/36/9
f 12/37/10 11/38/10 15/39/10 16/40/10
f 11/41/11 9/42/11 13/43/11 15/44/11
f 14/45/12 10/46/12 12/47/12 16/48/12