# Made in Blockbench 4.9.4
mtllib AdFrame.mtl

o Frame
v 0.25 0.75 -1.734723475976807e-18
v 0.25 0.75 -0.006249999999999999
v 0.25 0 -1.734723475976807e-18
v 0.25 0 -0.006249999999999999
v -0.25 0.75 -1.734723475976807e-18
v -0.25 0.75 -0.006249999999999999
v -0.25 0 -1.734723475976807e-18
v -0.25 0 -0.006249999999999999
v 0.23125 0.75 -0.006249999999999999
v 0.23125 0 -0.006249999999999999
v 0.23125 0 -1.734723475976807e-18
v 0.23125 0.75 -1.734723475976807e-18
v -0.23437500000000003 0.75 -0.006249999999999999
v -0.23437500000000003 0 -0.006249999999999999
v -0.23437500000000003 0 -1.734723475976807e-18
v -0.23437500000000003 0.75 -1.734723475976807e-18
v -0.23437500000000003 0.7312499999999998 -0.006249999999999999
v 0.23125 0.7312499999999998 -0.006249999999999999
v 0.25 0.7312499999999998 -0.006249999999999999
v 0.25 0.7312499999999998 -1.734723475976807e-18
v 0.23125 0.7312499999999998 -1.734723475976807e-18
v -0.23437500000000003 0.7312499999999998 -1.734723475976807e-18
v -0.25 0.7312499999999998 -1.734723475976807e-18
v -0.25 0.7312499999999998 -0.006249999999999999
v -0.23437500000000003 0.015624999999999972 -0.006249999999999999
v 0.23125 0.015624999999999972 -0.006249999999999999
v 0.25 0.015624999999999972 -0.006249999999999999
v 0.25 0.015624999999999972 -1.734723475976807e-18
v 0.23125 0.015624999999999972 -1.734723475976807e-18
v -0.23437500000000003 0.015624999999999972 -1.734723475976807e-18
v -0.25 0.015624999999999972 -1.734723475976807e-18
v -0.25 0.015624999999999972 -0.006249999999999999
v 0.25 0.7312499999999998 -0.012500000000000004
v 0.23125 0.015624999999999972 -0.012500000000000004
v 0.25 0.015624999999999972 -0.012500000000000004
v 0.23125 0 -0.012500000000000004
v 0.25 0 -0.012500000000000004
v -0.23437500000000003 0 -0.012500000000000004
v -0.23437500000000003 0.015624999999999972 -0.012500000000000004
v -0.25 0 -0.012500000000000004
v -0.25 0.015624999999999972 -0.012500000000000004
v -0.23437500000000003 0.7312499999999998 -0.012500000000000004
v -0.25 0.7312499999999998 -0.012500000000000004
v 0.23125 0.75 -0.012500000000000004
v 0.23125 0.7312499999999998 -0.012500000000000004
v -0.23437500000000003 0.75 -0.012500000000000004
v -0.25 0.75 -0.012500000000000004
v 0.25 0.75 -0.012500000000000004
vt 0.37578125 0.46875
vt 0.37578125 0.459375
vt 0.37890625 0.459375
vt 0.37890625 0.46875
vt 0.44140625 0.46875
vt 0.44140625 0.459375
vt 0.44453125 0.459375
vt 0.44453125 0.46875
vt 0.75 0.46562499999999996
vt 0.740625 0.46562499999999996
vt 0.740625 0.4625
vt 0.75 0.4625
vt 0.8125 0.9984375
vt 0.803125 0.9984375
vt 0.803125 0.9953125
vt 0.8125 0.9953125
vt 0.240625 1
vt 0.240625 0.990625
vt 0.25 0.990625
vt 0.25 1
vt 0.28125 1
vt 0.28125 0.990625
vt 0.290625 0.990625
vt 0.290625 1
vt 0.290625 1
vt 0.290625 0.990625
vt 0.5234375 0.990625
vt 0.5234375 1
vt 0.803125 0.9984375
vt 0.5703125 0.9984375
vt 0.5703125 0.9953125
vt 0.803125 0.9953125
vt 0.0078125 1
vt 0.0078125 0.990625
vt 0.240625 0.990625
vt 0.240625 1
vt 0.740625 0.46562499999999996
vt 0.5078125 0.46562499999999996
vt 0.5078125 0.4625
vt 0.740625 0.4625
vt 0.5234375 1
vt 0.5234375 0.990625
vt 0.53125 0.990625
vt 0.53125 1
vt 0.5625 0.9953125
vt 0.5703125 0.9953125
vt 0.5703125 0.9984375
vt 0.5625 0.9984375
vt 0 1
vt 0 0.990625
vt 0.0078125 0.990625
vt 0.0078125 1
vt 0.5 0.4625
vt 0.5078125 0.4625
vt 0.5078125 0.46562499999999996
vt 0.5 0.46562499999999996
vt 0 0.59375
vt 0 0.25
vt 0.21875 0.25
vt 0.21875 0.59375
vt 0.28125 0.990625
vt 0.28125 0.6328125
vt 0.290625 0.6328125
vt 0.290625 0.990625
vt 0.37578125 0.459375
vt 0.37578125 0.1015625
vt 0.37890625 0.1015625
vt 0.37890625 0.459375
vt 0.240625 0.990625
vt 0.240625 0.6328125
vt 0.25 0.6328125
vt 0.25 0.990625
vt 0.0078125 0.990625
vt 0.0078125 0.6328125
vt 0.240625 0.6328125
vt 0.240625 0.990625
vt 0 0.990625
vt 0 0.6328125
vt 0.0078125 0.6328125
vt 0.0078125 0.990625
vt 0.44140625 0.459375
vt 0.44140625 0.1015625
vt 0.44453125 0.1015625
vt 0.44453125 0.459375
vt 0.5234375 0.990625
vt 0.5234375 0.6328125
vt 0.53125 0.6328125
vt 0.53125 0.990625
vt 0.5234375 0.625
vt 0.5234375 0.6328125
vt 0.290625 0.6328125
vt 0.290625 0.625
vt 0.290625 0.625
vt 0.290625 0.6328125
vt 0.28125 0.6328125
vt 0.28125 0.625
vt 0.37890625 0.09375
vt 0.37890625 0.1015625
vt 0.37578125 0.1015625
vt 0.37578125 0.09375
vt 0.25 0.625
vt 0.25 0.6328125
vt 0.240625 0.6328125
vt 0.240625 0.625
vt 0.240625 0.625
vt 0.240625 0.6328125
vt 0.0078125 0.6328125
vt 0.0078125 0.625
vt 0.0078125 0.625
vt 0.0078125 0.6328125
vt 0 0.6328125
vt 0 0.625
vt 0.44453125 0.09375
vt 0.44453125 0.1015625
vt 0.44140625 0.1015625
vt 0.44140625 0.09375
vt 0.53125 0.625
vt 0.53125 0.6328125
vt 0.5234375 0.6328125
vt 0.5234375 0.625
vt 0.38203125 0.1015625
vt 0.38203125 0.459375
vt 0.37890625 0.459375
vt 0.37890625 0.1015625
vt 0.25 0.59375
vt 0.25 0.25
vt 0.28125 0.25
vt 0.28125 0.59375
vt 0.38203125 0.09375
vt 0.38203125 0.1015625
vt 0.37890625 0.1015625
vt 0.37890625 0.09375
vt 0.803125 0.9921875
vt 0.8125 0.9921875
vt 0.8125 0.9953125
vt 0.803125 0.9953125
vt 0.59375 0.59375
vt 0.375 0.59375
vt 0.375 0.5625
vt 0.59375 0.5625
vt 0.5703125 0.9921875
vt 0.803125 0.9921875
vt 0.803125 0.9953125
vt 0.5703125 0.9953125
vt 0.43828125 0.1015625
vt 0.43828125 0.09375
vt 0.44140625 0.09375
vt 0.44140625 0.1015625
vt 0.5625 0.9921875
vt 0.5703125 0.9921875
vt 0.5703125 0.9953125
vt 0.5625 0.9953125
vt 0.34375 0.25
vt 0.34375 0.59375
vt 0.3125 0.59375
vt 0.3125 0.25
vt 0.43828125 0.459375
vt 0.43828125 0.1015625
vt 0.44140625 0.1015625
vt 0.44140625 0.459375
vt 0.375 0.5
vt 0.59375 0.5
vt 0.59375 0.53125
vt 0.375 0.53125
vt 0.740625 0.46875
vt 0.5078125 0.46875
vt 0.5078125 0.46562499999999996
vt 0.740625 0.46562499999999996
vt 0.43828125 0.46875
vt 0.43828125 0.459375
vt 0.44140625 0.459375
vt 0.44140625 0.46875
vt 0.5078125 0.46875
vt 0.5 0.46875
vt 0.5 0.46562499999999996
vt 0.5078125 0.46562499999999996
vt 0.38203125 0.459375
vt 0.38203125 0.46875
vt 0.37890625 0.46875
vt 0.37890625 0.459375
vt 0.75 0.46875
vt 0.740625 0.46875
vt 0.740625 0.46562499999999996
vt 0.75 0.46562499999999996
vn 1 0 0
vn -1 0 0
vn 0 1 0
vn 0 -1 0
vn 0 0 1
vn 0 0 -1
vn 0 0 -1
vn 0 -1 0
vn 0 0 1
vn 0 1 0
vn 0 0 -1
vn 0 -1 0
vn 0 0 1
vn 0 1 0
vn 0 0 -1
vn 0 0 -1
vn 1 0 0
vn 0 0 1
vn 0 0 1
vn 0 0 1
vn -1 0 0
vn 0 0 -1
vn 0 0 -1
vn 0 0 -1
vn 1 0 0
vn 0 0 1
vn 0 0 1
vn 0 0 1
vn -1 0 0
vn 0 0 -1
vn 1 0 0
vn -1 0 0
vn 1 0 0
vn 0 -1 0
vn 0 1 0
vn 0 -1 0
vn -1 0 0
vn 0 -1 0
vn 1 0 0
vn -1 0 0
vn 0 -1 0
vn 0 1 0
vn -1 0 0
vn 0 1 0
vn 1 0 0
vn 0 1 0
usemtl m_523520ae-9c43-08b4-4236-917b1b0a2e67
f 1/1/1 20/2/1 19/3/1 2/4/1
f 6/5/2 24/6/2 23/7/2 5/8/2
f 2/9/3 9/10/3 12/11/3 1/12/3
f 3/13/4 11/14/4 10/15/4 4/16/4
f 12/17/5 21/18/5 20/19/5 1/20/5
f 48/21/6 33/22/6 45/23/6 44/24/6
f 44/25/7 45/26/7 42/27/7 46/28/7
f 11/29/8 15/30/8 14/31/8 10/32/8
f 16/33/9 22/34/9 21/35/9 12/36/9
f 9/37/10 13/38/10 16/39/10 12/40/10
f 46/41/11 42/42/11 43/43/11 47/44/11
f 8/45/12 14/46/12 15/47/12 7/48/12
f 5/49/13 23/50/13 22/51/13 16/52/13
f 5/53/14 16/54/14 13/55/14 6/56/14
f 18/57/15 26/58/15 25/59/15 17/60/15
f 33/61/16 35/62/16 34/63/16 45/64/16
f 20/65/17 28/66/17 27/67/17 19/68/17
f 21/69/18 29/70/18 28/71/18 20/72/18
f 22/73/19 30/74/19 29/75/19 21/76/19
f 23/77/20 31/78/20 30/79/20 22/80/20
f 24/81/21 32/82/21 31/83/21 23/84/21
f 42/85/22 39/86/22 41/87/22 43/88/22
f 38/89/23 39/90/23 34/91/23 36/92/23
f 36/93/24 34/94/24 35/95/24 37/96/24
f 4/97/25 27/98/25 28/99/25 3/100/25
f 3/101/26 28/102/26 29/103/26 11/104/26
f 11/105/27 29/106/27 30/107/27 15/108/27
f 15/109/28 30/110/28 31/111/28 7/112/28
f 7/113/29 31/114/29 32/115/29 8/116/29
f 40/117/30 41/118/30 39/119/30 38/120/30
f 35/121/31 33/122/31 19/123/31 27/124/31
f 45/125/32 34/126/32 26/127/32 18/128/32
f 37/129/33 35/130/33 27/131/33 4/132/33
f 36/133/34 37/134/34 4/135/34 10/136/34
f 34/137/35 39/138/35 25/139/35 26/140/35
f 38/141/36 36/142/36 10/143/36 14/144/36
f 41/145/37 40/146/37 8/147/37 32/148/37
f 40/149/38 38/150/38 14/151/38 8/152/38
f 39/153/39 42/154/39 17/155/39 25/156/39
f 43/157/40 41/158/40 32/159/40 24/160/40
f 42/161/41 45/162/41 18/163/41 17/164/41
f 44/165/42 46/166/42 13/167/42 9/168/42
f 47/169/43 43/170/43 24/171/43 6/172/43
f 46/173/44 47/174/44 6/175/44 13/176/44
f 33/177/45 48/178/45 2/179/45 19/180/45
f 48/181/46 44/182/46 9/183/46 2/184/46