# Made in Blockbench 4.9.4
mtllib ClothesLine_Dress.mtl

o cuboid
v 0.225 0.02499999999999994 0.5
v 0.5 0.02499999999999994 -0.5
v 0.225 0 0.5
v 0.5 0 -0.5
v -0.225 0.02499999999999994 0.5
v -0.5 0.02499999999999994 -0.5
v -0.225 0 0.5
v -0.5 0 -0.5
v 0 0.02499999999999994 0.4187500000000003
v 0 0.02499999999999994 -0.5
v 0 0 -0.5
v 0 0 0.4187500000000003
v -0.1125 0.02499999999999994 0.4437500000000002
v -0.25 0.02499999999999994 -0.5
v -0.25 0 -0.5
v -0.1125 0 0.4437500000000002
v 0.25 0.02499999999999994 -0.5
v 0.1125 0.02499999999999994 0.4437500000000002
v 0.1125 0 0.4437500000000002
v 0.25 0 -0.5
vt 0.5 0.859375
vt 0.234375 0.859375
vt 0.234375 0.84375
vt 0.5 0.84375
vt 0.515625 0.90625
vt 0.515625 0.921875
vt 0.25 0.921875
vt 0.25 0.90625
vt 0.125 0.7703125
vt 0.153125 0.7640625
vt 0.1875 1
vt 0.125 1
vt 0.296875 0.578125
vt 0.359375 0.578125
vt 0.325 0.8140625
vt 0.296875 0.8078125
vt 0 0.65
vt 0.028810937499999998 0.65
vt 0.028810937499999998 0.65625
vt 0 0.65625
vt 0.375 0.890625
vt 0.3125 0.890625
vt 0.3125 0.884375
vt 0.375 0.884375
vt 0.125 1
vt 0.0625 1
vt 0.096875 0.7640625
vt 0.125 0.7703125
vt 0.375 0.884375
vt 0.4375 0.884375
vt 0.4375 0.890625
vt 0.375 0.890625
vt 0.296875 0.8078125
vt 0.26875 0.8140625
vt 0.234375 0.578125
vt 0.296875 0.578125
vt 0.40625 0.96875
vt 0.37743906250000003 0.96875
vt 0.37743906250000003 0.9625
vt 0.40625 0.9625
vt 0.06875 0.75
vt 0.096875 0.7640625
vt 0.0625 1
vt 0 1
vt 0.5 0.890625
vt 0.4375 0.890625
vt 0.4375 0.884375
vt 0.5 0.884375
vt 0.171875 0.578125
vt 0.234375 0.578125
vt 0.26875 0.8140625
vt 0.240625 0.828125
vt 0.3459953125 0.9625
vt 0.37743906250000003 0.9625
vt 0.37743906250000003 0.96875
vt 0.3459953125 0.96875
vt 0.25 1
vt 0.1875 1
vt 0.153125 0.7640625
vt 0.18125 0.75
vt 0.0602546875 0.65625
vt 0.028810937499999998 0.65625
vt 0.028810937499999998 0.65
vt 0.0602546875 0.65
vt 0.353125 0.828125
vt 0.325 0.8140625
vt 0.359375 0.578125
vt 0.421875 0.578125
vt 0.25 0.884375
vt 0.3125 0.884375
vt 0.3125 0.890625
vt 0.25 0.890625
vn 0.9642053928037904 0 0.2651564830210424
vn -0.9642053928037904 0 0.2651564830210424
vn 0 1 0
vn 0 -1 0
vn -0.21693045781865541 0 0.976187060183953
vn 0 0 -1
vn 0 1 0
vn 0 0 -1
vn 0 -1 0
vn 0.21693045781865541 0 0.976187060183953
vn 0 1 0
vn 0 0 -1
vn 0 -1 0
vn 0.44721359549995665 0 0.8944271909999166
vn 0 1 0
vn -0.44721359549995665 0 0.8944271909999166
vn 0 -1 0
vn 0 0 -1
usemtl m_ef111297-e352-6285-eb4f-6d599665d45c
f 2/1/1 1/2/1 3/3/1 4/4/1
f 7/5/2 5/6/2 6/7/2 8/8/2
f 9/9/3 18/10/3 17/11/3 10/12/3
f 11/13/4 20/14/4 19/15/4 12/16/4
f 12/17/5 19/18/5 18/19/5 9/20/5
f 10/21/6 17/22/6 20/23/6 11/24/6
f 10/25/7 14/26/7 13/27/7 9/28/7
f 11/29/8 15/30/8 14/31/8 10/32/8
f 12/33/9 16/34/9 15/35/9 11/36/9
f 9/37/10 13/38/10 16/39/10 12/40/10
f 5/41/11 13/42/11 14/43/11 6/44/11
f 6/45/12 14/46/12 15/47/12 8/48/12
f 8/49/13 15/50/13 16/51/13 7/52/13
f 7/53/14 16/54/14 13/55/14 5/56/14
f 2/57/15 17/58/15 18/59/15 1/60/15
f 1/61/16 18/62/16 19/63/16 3/64/16
f 3/65/17 19/66/17 20/67/17 4/68/17
f 4/69/18 20/70/18 17/71/18 2/72/18
o cuboid
v -0.22500000000000042 0.02499999999999991 0.5
v -0.3250000000000002 0.02499999999999991 0.15625
v -0.22500000000000042 0 0.5
v -0.3250000000000002 0 0.15625
v -0.38125 0.02499999999999991 0.40625000000000033
v -0.48749999999999916 0.02499999999999991 0.15625
v -0.38125 0 0.40625000000000033
v -0.48749999999999916 0 0.15625
vt 0.359375 1
vt 0.265625 1
vt 0.265625 0.984375
vt 0.359375 0.984375
vt 0.328125 0.953125
vt 0.328125 0.96875
vt 0.265625 0.96875
vt 0.265625 0.953125
vt 0.13304709126414932 0.6669431030339762
vt 0.15625 0.6335272155811529
vt 0.15625 0.723027237403776
vt 0.125 0.734375
vt 0.015611370386800525 0.703125
vt 0.10511139220942356 0.703125
vt 0.07169550475660026 0.7263279087358507
vt 0.00426360779057644 0.734375
vt 0.109375 0.671875
vt 0.109375 0.6875
vt 0.0625 0.6875
vt 0.0625 0.671875
vt 0.046875 0.6875
vt 0 0.6875
vt 0 0.671875
vt 0.046875 0.671875
vn 0.9601952966035756 0 -0.2793295408301304
vn -0.9203309184584759 0 0.39114064034484863
vn 0 1 0
vn 0 -1 0
vn -0.5144957554275262 0 0.8574929257125443
vn 0 0 -1
usemtl m_ef111297-e352-6285-eb4f-6d599665d45c
f 22/73/19 21/74/19 23/75/19 24/76/19
f 27/77/20 25/78/20 26/79/20 28/80/20
f 25/81/21 21/82/21 22/83/21 26/84/21
f 24/85/22 23/86/22 27/87/22 28/88/22
f 23/89/23 21/90/23 25/91/23 27/92/23
f 26/93/24 22/94/24 24/95/24 28/96/24
o cuboid
v 0.22500000000000042 0.02499999999999991 0.5
v 0.3250000000000002 0.02499999999999991 0.15625
v 0.22500000000000042 0 0.5
v 0.3250000000000002 0 0.15625
v 0.38125 0.02499999999999991 0.40625000000000033
v 0.48749999999999916 0.02499999999999991 0.15625
v 0.38125 0 0.40625000000000033
v 0.48749999999999916 0 0.15625
vt 0.265625 0.984375
vt 0.265625 1
vt 0.359375 1
vt 0.359375 0.984375
vt 0.265625 0.96875
vt 0.328125 0.96875
vt 0.328125 0.953125
vt 0.265625 0.953125
vt 0.15625 0.723027237403776
vt 0.15625 0.6335272155811529
vt 0.13304709126414932 0.6669431030339762
vt 0.125 0.734375
vt 0.07169550475660026 0.7263279087358507
vt 0.10511139220942356 0.703125
vt 0.015611370386800525 0.703125
vt 0.00426360779057644 0.734375
vt 0.0625 0.6875
vt 0.109375 0.6875
vt 0.109375 0.671875
vt 0.0625 0.671875
vt 0 0.671875
vt 0 0.6875
vt 0.046875 0.6875
vt 0.046875 0.671875
vn -0.9601952966035756 0 -0.2793295408301304
vn 0.9203309184584759 0 0.39114064034484863
vn 0 1 0
vn 0 -1 0
vn 0.5144957554275262 0 0.8574929257125443
vn 0 0 -1
usemtl m_ef111297-e352-6285-eb4f-6d599665d45c
f 31/97/25 29/98/25 30/99/25 32/100/25
f 34/101/26 33/102/26 35/103/26 36/104/26
f 30/105/27 29/106/27 33/107/27 34/108/27
f 35/109/28 31/110/28 32/111/28 36/112/28
f 33/113/29 29/114/29 31/115/29 35/116/29
f 32/117/30 30/118/30 34/119/30 36/120/30