# Made in Blockbench 4.9.4
mtllib ClothesLine_Pants.mtl

o cuboid
v 0.275 0.025000000000000022 0.5
v 0.38749999999999996 0.025000000000000022 -0.5
v 0.275 0 0.5
v 0.38749999999999996 0 -0.5
v -0.275 0.025000000000000022 0.5
v -0.38749999999999996 0.025000000000000022 -0.5
v -0.275 0 0.5
v -0.38749999999999996 0 -0.5
v 0 0.025000000000000022 0.5
v 0 0.025000000000000022 0.25625
v 0 0 0.25625
v 0 0 0.5
v -0.1375 0.025000000000000022 0.5
v -0.0875 0.025000000000000022 -0.5
v -0.0875 0 -0.5
v -0.1375 0 0.5
v 0.0875 0.025000000000000022 -0.5
v 0.1375 0.025000000000000022 0.5
v 0.1375 0 0.5
v 0.0875 0 -0.5
v -0.031249999999999986 0.025000000000000022 0.25625
v -0.06875 0.025000000000000022 0.5
v -0.06875 0 0.5
v -0.031249999999999986 0 0.25625
v 0.06875 0.025000000000000022 0.5
v 0.031249999999999986 0.025000000000000022 0.25625
v 0.031249999999999986 0 0.25625
v 0.06875 0 0.5
vt 0.9375 1
vt 0.4375 1
vt 0.4375 0.96875
vt 0.9375 0.96875
vt 0.9375 0.90625
vt 0.9375 0.9375
vt 0.4375 0.9375
vt 0.4375 0.90625
vt 0.24687499999999996 1
vt 0.21874999999999997 0.621875
vt 0.2375 0.5
vt 0.271875 0.5
vt 0.6468750000000001 0.75
vt 0.6125 0.75
vt 0.59375 0.628125
vt 0.621875 0.25
vt 0.209375 0.40625
vt 0.175 0.40625
vt 0.175 0.39375000000000004
vt 0.209375 0.39375000000000004
vt 0.4375 0.84375
vt 0.8125 0.84375
vt 0.8125 0.875
vt 0.4375 0.875
vt 0.13437499999999997 0.5
vt 0.16874999999999996 0.5
vt 0.18749999999999997 0.621875
vt 0.159375 1
vt 0.8125 0.8125
vt 0.4375 0.8125
vt 0.4375 0.78125
vt 0.8125 0.78125
vt 0.534375 0.25
vt 0.5625 0.628125
vt 0.54375 0.75
vt 0.509375 0.75
vt 0.071875 0.39375000000000004
vt 0.10625 0.39375000000000004
vt 0.10625 0.40625
vt 0.071875 0.40625
vt 0.06562499999999996 0.5
vt 0.13437499999999997 0.5
vt 0.159375 1
vt 0.009374999999999967 1
vt 0.15625 0.46875
vt 0 0.46875
vt 0 0.4375
vt 0.15625 0.4375
vt 0.38437499999999997 0.25
vt 0.534375 0.25
vt 0.509375 0.75
vt 0.440625 0.75
vt 0.003124999999999989 0.39375000000000004
vt 0.071875 0.39375000000000004
vt 0.071875 0.40625
vt 0.003124999999999989 0.40625
vt 0.39687500000000003 1
vt 0.24687499999999996 1
vt 0.271875 0.5
vt 0.340625 0.5
vt 0.278125 0.40625
vt 0.209375 0.40625
vt 0.209375 0.39375000000000004
vt 0.278125 0.39375000000000004
vt 0.715625 0.75
vt 0.6468750000000001 0.75
vt 0.621875 0.25
vt 0.7718750000000001 0.25
vt 0.1875 0.4375
vt 0.34375 0.4375
vt 0.34375 0.46875
vt 0.1875 0.46875
vt 0.20312499999999997 0.621875
vt 0.18749999999999997 0.621875
vt 0.16874999999999996 0.5
vt 0.20312499999999997 0.5
vt 0.140625 0.40625
vt 0.10625 0.40625
vt 0.10625 0.39375000000000004
vt 0.140625 0.39375000000000004
vt 0.578125 0.75
vt 0.54375 0.75
vt 0.5625 0.628125
vt 0.578125 0.628125
vt 0.328125 0.39375000000000004
vt 0.34375 0.39375000000000004
vt 0.34375 0.40625
vt 0.328125 0.40625
vt 0.20312499999999997 0.5
vt 0.2375 0.5
vt 0.21874999999999997 0.621875
vt 0.20312499999999997 0.621875
vt 0.328125 0.40625
vt 0.3125 0.40625
vt 0.3125 0.39375000000000004
vt 0.328125 0.39375000000000004
vt 0.578125 0.628125
vt 0.59375 0.628125
vt 0.6125 0.75
vt 0.578125 0.75
vt 0.140625 0.39375000000000004
vt 0.175 0.39375000000000004
vt 0.175 0.40625
vt 0.140625 0.40625
vn 0.9937313161588018 0 0.11179477306786514
vn -0.9937313161588018 0 0.11179477306786514
vn 0 1 0
vn 0 -1 0
vn 0 0 1
vn -0.997245220674908 0 -0.07417526434772044
vn 0 1 0
vn 0.997245220674908 0 -0.07417526434772044
vn 0 -1 0
vn 0 0 1
vn 0 1 0
vn 0 0 -1
vn 0 -1 0
vn 0 0 1
vn 0 1 0
vn 0 0 1
vn 0 -1 0
vn 0 0 -1
vn 0 1 0
vn 0 0 1
vn 0 -1 0
vn 0 0 -1
vn 0 1 0
vn 0 0 -1
vn 0 -1 0
vn 0 0 1
usemtl m_8f2c625b-0bdc-2d3f-6b4f-5521709b144d
f 2/1/1 1/2/1 3/3/1 4/4/1
f 7/5/2 5/6/2 6/7/2 8/8/2
f 17/9/3 26/10/3 25/11/3 18/12/3
f 19/13/4 28/14/4 27/15/4 20/16/4
f 18/17/5 25/18/5 28/19/5 19/20/5
f 20/21/6 27/22/6 26/23/6 17/24/6
f 13/25/7 22/26/7 21/27/7 14/28/7
f 14/29/8 21/30/8 24/31/8 15/32/8
f 15/33/9 24/34/9 23/35/9 16/36/9
f 16/37/10 23/38/10 22/39/10 13/40/10
f 5/41/11 13/42/11 14/43/11 6/44/11
f 6/45/12 14/46/12 15/47/12 8/48/12
f 8/49/13 15/50/13 16/51/13 7/52/13
f 7/53/14 16/54/14 13/55/14 5/56/14
f 2/57/15 17/58/15 18/59/15 1/60/15
f 1/61/16 18/62/16 19/63/16 3/64/16
f 3/65/17 19/66/17 20/67/17 4/68/17
f 4/69/18 20/70/18 17/71/18 2/72/18
f 10/73/19 21/74/19 22/75/19 9/76/19
f 9/77/20 22/78/20 23/79/20 12/80/20
f 12/81/21 23/82/21 24/83/21 11/84/21
f 11/85/22 24/86/22 21/87/22 10/88/22
f 9/89/23 25/90/23 26/91/23 10/92/23
f 10/93/24 26/94/24 27/95/24 11/96/24
f 11/97/25 27/98/25 28/99/25 12/100/25
f 12/101/26 28/102/26 25/103/26 9/104/26