# Made in Blockbench 4.9.4
mtllib ClothesLine_Shirt.mtl

o cuboid
v 0.25 0.012499999999999997 0.5
v 0.39375 0.012499999999999997 -0.3500000000000001
v 0.25 0 0.5
v 0.39375 0 -0.3500000000000001
v -0.25 0.012499999999999997 0.5
v -0.39375 0.012499999999999997 -0.3500000000000001
v -0.25 0 0.5
v -0.39375 0 -0.3500000000000001
v 0 0.012499999999999997 0.45625000000000016
v 0 0.012499999999999997 -0.3500000000000001
v 0 0 -0.3500000000000001
v 0 0 0.45625000000000016
v -0.125 0.012499999999999997 0.5
v -0.196875 0.012499999999999997 -0.3500000000000001
v -0.196875 0 -0.3500000000000001
v -0.125 0 0.5
v 0.196875 0.012499999999999997 -0.3500000000000001
v 0.125 0.012499999999999997 0.5
v 0.125 0 0.5
v 0.196875 0 -0.3500000000000001
v 0.0625 0.012499999999999997 0.4656250000000001
v 0.0984375 0.012499999999999997 -0.3500000000000001
v 0.0984375 0 -0.3500000000000001
v 0.0625 0 0.4656250000000001
v -0.0984375 0.012499999999999997 -0.3500000000000001
v -0.0625 0.012499999999999997 0.4656250000000001
v -0.0625 0 0.4656250000000001
v -0.0984375 0 -0.3500000000000001
vt 0.5 1
vt 0.28125 1
vt 0.28125 0.984375
vt 0.5 0.984375
vt 0.5 0.953125
vt 0.5 0.96875
vt 0.28125 0.96875
vt 0.28125 0.953125
vt 0.15078124999999998 1
vt 0.126171875 1
vt 0.1171875 0.79296875
vt 0.1328125 0.7875
vt 0.3046875 0.853125
vt 0.2890625 0.84765625
vt 0.298046875 0.640625
vt 0.32265625 0.640625
vt 0.03999140625 0.671875
vt 0.0234375 0.671875
vt 0.0234375 0.66875
vt 0.03999140625 0.66875
vt 0.41171875 0.871875
vt 0.436328125 0.871875
vt 0.436328125 0.875
vt 0.41171875 0.875
vt 0.0703125 0.7875
vt 0.0859375 0.79296875
vt 0.076953125 1
vt 0.05234375 1
vt 0.51015625 0.875
vt 0.485546875 0.875
vt 0.485546875 0.871875
vt 0.51015625 0.871875
vt 0.22421875 0.640625
vt 0.248828125 0.640625
vt 0.2578125 0.84765625
vt 0.2421875 0.853125
vt 0.10063359375 0.7
vt 0.1171875 0.7
vt 0.1171875 0.703125
vt 0.10063359375 0.703125
vt 0.0390625 0.7875
vt 0.0703125 0.7875
vt 0.052343749999999994 1
vt 0.0031250000000000028 1
vt 0.559375 0.875
vt 0.51015625 0.875
vt 0.51015625 0.871875
vt 0.559375 0.871875
vt 0.175 0.640625
vt 0.22421875 0.640625
vt 0.2421875 0.853125
vt 0.2109375 0.853125
vt 0.06938359375 0.7
vt 0.10063359375 0.7
vt 0.10063359375 0.703125
vt 0.06938359375 0.703125
vt 0.2 1
vt 0.15078124999999998 1
vt 0.1328125 0.7875
vt 0.1640625 0.7875
vt 0.07124140625 0.671875
vt 0.03999140625 0.671875
vt 0.03999140625 0.66875
vt 0.07124140625 0.66875
vt 0.3359375 0.853125
vt 0.3046875 0.853125
vt 0.32265625 0.640625
vt 0.371875 0.640625
vt 0.3625 0.871875
vt 0.41171875 0.871875
vt 0.41171875 0.875
vt 0.3625 0.875
vt 0.1015625 0.7984375
vt 0.1171875 0.79296875
vt 0.126171875 1
vt 0.1015625 1
vt 0.4609375 0.875
vt 0.436328125 0.875
vt 0.436328125 0.871875
vt 0.4609375 0.871875
vt 0.2734375 0.640625
vt 0.298046875 0.640625
vt 0.2890625 0.84765625
vt 0.2734375 0.8421875
vt 0.00688359375 0.66875
vt 0.0234375 0.66875
vt 0.0234375 0.671875
vt 0.00688359375 0.671875
vt 0.1015625 1
vt 0.076953125 1
vt 0.0859375 0.79296875
vt 0.1015625 0.7984375
vt 0.13374140625 0.703125
vt 0.1171875 0.703125
vt 0.1171875 0.7
vt 0.13374140625 0.7
vt 0.2734375 0.8421875
vt 0.2578125 0.84765625
vt 0.248828125 0.640625
vt 0.2734375 0.640625
vt 0.4609375 0.871875
vt 0.485546875 0.871875
vt 0.485546875 0.875
vt 0.4609375 0.875
vn 0.9859992296884027 0 0.16674986972671513
vn -0.9859992296884027 0 0.16674986972671513
vn 0 1 0
vn 0 -1 0
vn -0.48191874977215454 0 0.8762159086766478
vn 0 0 -1
vn 0 1 0
vn 0 0 -1
vn 0 -1 0
vn 0.48191874977215454 0 0.8762159086766478
vn 0 1 0
vn 0 0 -1
vn 0 -1 0
vn 0 0 1
vn 0 1 0
vn 0 0 1
vn 0 -1 0
vn 0 0 -1
vn 0 1 0
vn 0 0 -1
vn 0 -1 0
vn -0.14834045293024412 0 0.9889363528682976
vn 0 1 0
vn 0.14834045293024412 0 0.9889363528682976
vn 0 -1 0
vn 0 0 -1
usemtl m_d0eeb5e2-d90f-306a-9bce-aadf726003b6
f 2/1/1 1/2/1 3/3/1 4/4/1
f 7/5/2 5/6/2 6/7/2 8/8/2
f 17/9/3 22/10/3 21/11/3 18/12/3
f 19/13/4 24/14/4 23/15/4 20/16/4
f 18/17/5 21/18/5 24/19/5 19/20/5
f 20/21/6 23/22/6 22/23/6 17/24/6
f 13/25/7 26/26/7 25/27/7 14/28/7
f 14/29/8 25/30/8 28/31/8 15/32/8
f 15/33/9 28/34/9 27/35/9 16/36/9
f 16/37/10 27/38/10 26/39/10 13/40/10
f 5/41/11 13/42/11 14/43/11 6/44/11
f 6/45/12 14/46/12 15/47/12 8/48/12
f 8/49/13 15/50/13 16/51/13 7/52/13
f 7/53/14 16/54/14 13/55/14 5/56/14
f 2/57/15 17/58/15 18/59/15 1/60/15
f 1/61/16 18/62/16 19/63/16 3/64/16
f 3/65/17 19/66/17 20/67/17 4/68/17
f 4/69/18 20/70/18 17/71/18 2/72/18
f 9/73/19 21/74/19 22/75/19 10/76/19
f 10/77/20 22/78/20 23/79/20 11/80/20
f 11/81/21 23/82/21 24/83/21 12/84/21
f 12/85/22 24/86/22 21/87/22 9/88/22
f 10/89/23 25/90/23 26/91/23 9/92/23
f 9/93/24 26/94/24 27/95/24 12/96/24
f 12/97/25 27/98/25 28/99/25 11/100/25
f 11/101/26 28/102/26 25/103/26 10/104/26
o cuboid
v -0.25000000000000044 0.012500000000000039 0.5
v -0.3187500000000004 0.012500000000000039 0.10000000000000006
v -0.25000000000000044 0 0.5
v -0.3187500000000004 0 0.10000000000000006
v -0.40000000000000013 0.012500000000000039 0.4125000000000003
v -0.4999999999999992 0.012500000000000039 0.10000000000000006
v -0.40000000000000013 0 0.4125000000000003
v -0.4999999999999992 0 0.10000000000000006
vt 0.375 0.9375
vt 0.28125 0.9375
vt 0.28125 0.921875
vt 0.375 0.921875
vt 0.359375 0.890625
vt 0.359375 0.90625
vt 0.28125 0.90625
vt 0.28125 0.890625
vt 0.23015503355029598 0.9187692125194109
vt 0.265625 0.8908581599490664
vt 0.265625 0.9923244605431553
vt 0.21875 1
vt 0.007792119431377939 0.71875
vt 0.10925842002546682 0.71875
vt 0.08134736745512225 0.754219966449704
vt 0.00011657997453318886 0.765625
vt 0.046875 0.6875
vt 0.046875 0.703125
vt 0 0.703125
vt 0 0.6875
vt 0.171875 0.765625
vt 0.125 0.765625
vt 0.125 0.75
vt 0.171875 0.75
vn 0.9855488907597535 0 -0.1693912155993326
vn -0.9524241471993251 0 0.30477572710378104
vn 0 1 0
vn 0 -1 0
vn -0.5038710255240856 0 0.8637789008984338
vn 0 0 -1
usemtl m_d0eeb5e2-d90f-306a-9bce-aadf726003b6
f 30/105/27 29/106/27 31/107/27 32/108/27
f 35/109/28 33/110/28 34/111/28 36/112/28
f 33/113/29 29/114/29 30/115/29 34/116/29
f 32/117/30 31/118/30 35/119/30 36/120/30
f 31/121/31 29/122/31 33/123/31 35/124/31
f 34/125/32 30/126/32 32/127/32 36/128/32
o cuboid
v 0.25000000000000044 0.012500000000000039 0.5
v 0.3187500000000004 0.012500000000000039 0.10000000000000006
v 0.25000000000000044 0 0.5
v 0.3187500000000004 0 0.10000000000000006
v 0.40000000000000013 0.012500000000000039 0.4125000000000003
v 0.4999999999999992 0.012500000000000039 0.10000000000000006
v 0.40000000000000013 0 0.4125000000000003
v 0.4999999999999992 0 0.10000000000000006
vt 0.28125 0.921875
vt 0.28125 0.9375
vt 0.375 0.9375
vt 0.375 0.921875
vt 0.28125 0.90625
vt 0.359375 0.90625
vt 0.359375 0.890625
vt 0.28125 0.890625
vt 0.265625 0.9923244605431553
vt 0.265625 0.8908581599490664
vt 0.23015503355029598 0.9187692125194109
vt 0.21875 1
vt 0.08134736745512225 0.754219966449704
vt 0.10925842002546682 0.71875
vt 0.007792119431377939 0.71875
vt 0.00011657997453318886 0.765625
vt 0 0.703125
vt 0.046875 0.703125
vt 0.046875 0.6875
vt 0 0.6875
vt 0.125 0.75
vt 0.125 0.765625
vt 0.171875 0.765625
vt 0.171875 0.75
vn -0.9855488907597535 0 -0.1693912155993326
vn 0.9524241471993251 0 0.30477572710378104
vn 0 1 0
vn 0 -1 0
vn 0.5038710255240856 0 0.8637789008984338
vn 0 0 -1
usemtl m_d0eeb5e2-d90f-306a-9bce-aadf726003b6
f 39/129/33 37/130/33 38/131/33 40/132/33
f 42/133/34 41/134/34 43/135/34 44/136/34
f 38/137/35 37/138/35 41/139/35 42/140/35
f 43/141/36 39/142/36 40/143/36 44/144/36
f 41/145/37 37/146/37 39/147/37 43/148/37
f 40/149/38 38/150/38 42/151/38 44/152/38