# Made in Blockbench 4.9.4
mtllib SideWalk01_Corner.mtl

o cuboid
v 0.4375 0.06875000000000009 0.5
v 0.4375 0.06875000000000009 -0.4375
v 0.4375 0 0.5
v 0.4375 0 -0.4375
v -0.5 0.06875000000000009 0.5
v -0.375 0.06875000000000009 -0.3125
v -0.5 0 0.5
v -0.375 0 -0.3125
v -0.03125 0.06875000000000009 0.5
v -0.03125 0.06875000000000009 -0.4375
v -0.03125 0 -0.4375
v -0.03125 0 0.5
v 0.4375 0.06875000000000009 0.03125
v 0.4375 0 0.03125
v -0.03125 0 0.03125
v -0.5 0 0.03125
v -0.5 0.06875000000000009 0.03125
v -0.03125 0.06875000000000009 0.03125
vt 0.046875 0.7484375
vt 0.1640625 0.7484375
vt 0.1640625 0.765625
vt 0.046875 0.765625
vt 0.66193203125 0.640625
vt 0.54474453125 0.640625
vt 0.54474453125 0.6234375
vt 0.66193203125 0.6234375
vt 0.234375 0.375
vt 0.234375 0.4921875
vt 0.1171875 0.4921875
vt 0.1171875 0.375
vt 0.3671875 0.59375
vt 0.3671875 0.4765625
vt 0.484375 0.4765625
vt 0.484375 0.59375
vt 0.28125 0.71875
vt 0.1640625 0.71875
vt 0.1640625 0.7015625
vt 0.28125 0.7015625
vt 0.50017734375 0.7015625
vt 0.61736484375 0.7015625
vt 0.61736484375 0.71875
vt 0.50017734375 0.71875
vt 0.1171875 0.375
vt 0.1171875 0.4921875
vt 0 0.4921875
vt 0 0.375
vt 0.70880703125 0.71875
vt 0.61736484375 0.71875
vt 0.61736484375 0.7015625
vt 0.70880703125 0.7015625
vt 0.25 0.59375
vt 0.25 0.4765625
vt 0.3671875 0.4765625
vt 0.3671875 0.59375
vt 0.046875 0.7015625
vt 0.1640625 0.7015625
vt 0.1640625 0.71875
vt 0.046875 0.71875
vt 0.28125 0.765625
vt 0.1640625 0.765625
vt 0.1640625 0.7484375
vt 0.28125 0.7484375
vt 0.484375 0.359375
vt 0.484375 0.4765625
vt 0.3671875 0.4765625
vt 0.3671875 0.359375
vt 0.3671875 0.359375
vt 0.3671875 0.4765625
vt 0.25 0.4765625
vt 0.28125 0.390625
vt 0.45330234375 0.6234375
vt 0.54474453125 0.6234375
vt 0.54474453125 0.640625
vt 0.45330234375 0.640625
vt 0.03125 0.578125
vt 0 0.4921875
vt 0.1171875 0.4921875
vt 0.1171875 0.609375
vt 0.1171875 0.609375
vt 0.1171875 0.4921875
vt 0.234375 0.4921875
vt 0.234375 0.609375
vn 1 0 0
vn -1 0 0
vn 0 1 0
vn 0 -1 0
vn 0 0 1
vn 0 0 -1
vn 0 1 0
vn -0.34174306308670443 0 -0.9397934234884372
vn 0 -1 0
vn 0 0 1
vn 1 0 0
vn 0 -1 0
vn 0 -1 0
vn -0.9397934234884372 0 -0.34174306308670443
vn 0 1 0
vn 0 1 0
usemtl m_307e2b75-cbf8-ca2a-3df6-c0cde375c79d
f 3/1/1 14/2/1 13/3/1 1/4/1
f 5/5/2 17/6/2 16/7/2 7/8/2
f 1/9/3 13/10/3 18/11/3 9/12/3
f 12/13/4 15/14/4 14/15/4 3/16/4
f 1/17/5 9/18/5 12/19/5 3/20/5
f 4/21/6 11/22/6 10/23/6 2/24/6
f 9/25/7 18/26/7 17/27/7 5/28/7
f 6/29/8 10/30/8 11/31/8 8/32/8
f 7/33/9 16/34/9 15/35/9 12/36/9
f 7/37/10 12/38/10 9/39/10 5/40/10
f 2/41/11 13/42/11 14/43/11 4/44/11
f 4/45/12 14/46/12 15/47/12 11/48/12
f 11/49/13 15/50/13 16/51/13 8/52/13
f 8/53/14 16/54/14 17/55/14 6/56/14
f 6/57/15 17/58/15 18/59/15 10/60/15
f 10/61/16 18/62/16 13/63/16 2/64/16
o cuboid
v -0.026285849458053512 0.06875000000000009 -0.4439954883716428
v -0.026831257926701796 0.06875000000000009 -0.506493108563153
v -0.026285849458053512 2.0816681711721685e-16 -0.4439954883716428
v -0.026831257926701796 2.0816681711721685e-16 -0.506493108563153
v -0.505402511969747 0.06875000000000009 0.030812236149956623
v -0.5679025119697463 0.06875000000000009 0.030812236149956568
v -0.505402511969747 -1.457167719820518e-16 0.030812236149956623
v -0.5679025119697463 -1.457167719820518e-16 0.030812236149956568
v -0.41799270541966305 0.06875000000000009 -0.36829801294732833
v -0.41799270541966305 0 -0.36829801294732833
v -0.3779607508751688 0 -0.31382090660578804
v -0.3779607508751688 0.06875000000000009 -0.31382090660578804
v -0.5065899562545961 0.06875000000000006 0.498597817531863
v -0.5690899562545955 0.06875000000000006 0.49859781753186294
v -0.5065899562545961 -1.8041124150158794e-16 0.498597817531863
v -0.5690899562545955 -1.8041124150158794e-16 0.49859781753186294
v 0.43562427323545233 0.06875000000000009 -0.4454910784512276
v 0.43562427323545233 2.0816681711721685e-16 -0.4454910784512276
v 0.435078864766804 0.06875000000000009 -0.5079886986427378
v 0.435078864766804 2.0816681711721685e-16 -0.5079886986427378
vt 0.109375 0.796875
vt 0.09375 0.796875
vt 0.09375 0.78125
vt 0.109375 0.78125
vt 0.203125 0.8125
vt 0.203125 0.828125
vt 0.1875 0.828125
vt 0.1875 0.8125
vt 0.33030329284251386 0.7782064334427153
vt 0.2643923553425139 0.8582829959427154
vt 0.2550173553425139 0.8442204959427153
vt 0.3156689178425139 0.7727345584427153
vt 0.4562960731629985 0.7038180184758971
vt 0.3956412168364379 0.632336611428901
vt 0.4050157253008606 0.6182731336942908
vt 0.4709307498167109 0.69834603068588
vt 0.4999984375 0.90625
vt 0.40625 0.90625
vt 0.40625 0.8890625
vt 0.4999984375 0.8890625
vt 0.474853125 0.9359375
vt 0.5785671875 0.9359375
vt 0.5785671875 0.953125
vt 0.474853125 0.953125
vt 0.40399765625 1
vt 0.29741484375 1
vt 0.29741484375 0.9828125
vt 0.40399765625 0.9828125
vt 0.29843695507314894 0.6171875
vt 0.4050157253008606 0.6182731336942908
vt 0.3956412168364379 0.632336611428901
vt 0.3037811045100702 0.6318702867570194
vt 0.53891015625 0.8421875
vt 0.63077109375 0.8421875
vt 0.63077109375 0.859375
vt 0.53891015625 0.859375
vt 0.1631579803425139 0.8446923709427154
vt 0.2550173553425139 0.8442204959427153
vt 0.2643923553425139 0.8582829959427154
vt 0.15781423034251388 0.8593736209427154
vt 0.42196328125 0.859375
vt 0.42196328125 0.8421875
vt 0.53891015625 0.8421875
vt 0.53891015625 0.859375
vt 0.047818582157486134 0.8196543817643316
vt 0.05316283411320277 0.804971752707047
vt 0.1631579803425139 0.8446923709427154
vt 0.15781372838679725 0.859375
vt 0.5209445312500001 0.9828125
vt 0.5209445312500001 1
vt 0.40399765625 1
vt 0.40399765625 0.9828125
vt 0.19378553758270103 0.6715897408134189
vt 0.18844142683700152 0.6569070603586212
vt 0.29843695507314894 0.6171875
vt 0.30378106581884845 0.6318701804547977
vt 0.3555157928425139 0.6643486209427154
vt 0.37015016784251387 0.6698204959427154
vt 0.33030329284251386 0.7782064334427153
vt 0.3156689178425139 0.7727345584427153
vt 0.6154765625 0.8890625
vt 0.6154765625 0.90625
vt 0.4999984375 0.90625
vt 0.4999984375 0.8890625
vt 0.5107773231629985 0.8067320809758971
vt 0.4961429481629984 0.8122039559758971
vt 0.4562960731629985 0.7038180184758971
vt 0.47093044816299845 0.6983461434758971
vt 0.359375 0.953125
vt 0.359375 0.9359375
vt 0.474853125 0.9359375
vt 0.474853125 0.953125
vn 0.9999619230641713 0 -0.008726535498373043
vn -5.5511151231257815e-17 0 1
vn 0 1 0
vn 4.65351545745434e-16 -1 -3.4195891040354814e-16
vn 0.3471375772402786 0 0.9378142153261219
vn -0.3331161449502876 0 -0.9428858011304757
vn -0.9361412979655941 0 -0.35162404673641545
vn 3.2878929085406647e-16 -1 -2.416075087334449e-16
vn 0.9379260420462453 0 0.34683532065155226
vn 0 1 0
vn 0.9999967781840595 0 0.0025384289434794423
vn 0 1 5.933396992193502e-17
vn -0.9999967781840595 0 -0.0025384289434795537
vn 3.0814879110195774e-33 -1 -7.416746240241876e-17
vn 0 1 0
vn 0.0032378208802737443 0 0.9999947582442357
vn 0 -1 0
vn -0.0032378208802737443 0 -0.9999947582442358
usemtl m_307e2b75-cbf8-ca2a-3df6-c0cde375c79d
f 37/65/17 35/66/17 36/67/17 38/68/17
f 33/69/18 31/70/18 32/71/18 34/72/18
f 20/73/19 27/74/19 30/75/19 19/76/19
f 21/77/20 29/78/20 28/79/20 22/80/20
f 19/81/21 30/82/21 29/83/21 21/84/21
f 22/85/22 28/86/22 27/87/22 20/88/22
f 24/89/23 27/90/23 28/91/23 26/92/23
f 26/93/24 28/94/24 29/95/24 25/96/24
f 25/97/25 29/98/25 30/99/25 23/100/25
f 23/101/26 30/102/26 27/103/26 24/104/26
f 31/105/27 33/106/27 25/107/27 23/108/27
f 32/109/28 31/110/28 23/111/28 24/112/28
f 34/113/29 32/114/29 24/115/29 26/116/29
f 33/117/30 34/118/30 26/119/30 25/120/30
f 35/121/31 37/122/31 20/123/31 19/124/31
f 36/125/32 35/126/32 19/127/32 21/128/32
f 38/129/33 36/130/33 21/131/33 22/132/33
f 37/133/34 38/134/34 22/135/34 20/136/34
o cuboid
v -0.027335897902556083 0.025000000000000078 -0.5084655615573755
v -0.031071350886682864 0.025000000000000078 -0.6102262663330719
v -0.027335897902556083 4.336808689942018e-17 -0.5084655615573755
v -0.031071350886682864 4.336808689942018e-17 -0.6102262663330719
v -0.571805742110167 0.025000000000000085 0.030037475921174422
v -0.665427260993408 0.025000000000000085 0.025130980023398364
v -0.571805742110167 -2.42861286636753e-17 0.030037475921174422
v -0.665427260993408 -2.42861286636753e-17 0.025130980023398364
v -0.4190615183675562 0.02500000000000008 -0.36536147350737247
v -0.4916545214882923 0.02500000000000008 -0.4582942766390585
v -0.4916545214882923 0 -0.4582942766390585
v -0.4190615183675562 0 -0.36536147350737247
v 0.4345766045994389 0.025000000000000078 -0.5094157431683118
v 0.4345766045994389 3.642919299551295e-17 -0.5094157431683118
v 0.4345766045994386 0.025000000000000078 -0.6031657431683107
v 0.4345766045994386 3.642919299551295e-17 -0.6031657431683107
v -0.5761999431018211 0.025000000000000085 0.4952841552763544
v -0.6699499431018207 0.025000000000000085 0.4952841552763541
v -0.5761999431018211 -5.898059818321144e-17 0.4952841552763544
v -0.6699499431018207 -5.898059818321144e-17 0.4952841552763541
vt 0.171875 0.8125
vt 0.140625 0.8125
vt 0.140625 0.796875
vt 0.171875 0.796875
vt 0.03125 0.984375
vt 0.03125 1
vt 0 1
vt 0 0.984375
vt 0.3929729517967834 0.8407242979524583
vt 0.3194631315753553 0.9375
vt 0.30383757681796386 0.9125002771998115
vt 0.36938597652488336 0.8311463860276604
vt 0.02592628253921031 0.838134375
vt 0.059695911703840754 0.937001257519232
vt 0.036462091908131905 0.955148811604095
vt 0.00048592722321644244 0.8390671776116969
vt 0.6044734375 0.53125
vt 0.5 0.53125
vt 0.5 0.525
vt 0.6044734375 0.525
vt 0.616425 0.5874999999999999
vt 0.737953125 0.5875
vt 0.737953125 0.59375
vt 0.616425 0.59375
vt 0.19632630883075672 0.9130143087544671
vt 0.30383757681796386 0.9125002771998115
vt 0.3194631315753553 0.9375
vt 0.1894738918956813 0.9354284386737506
vt 0.61462890625 0.671875
vt 0.48462421875 0.671875
vt 0.48462421875 0.665625
vt 0.61462890625 0.665625
vt 0.1593200859205091 0.9976624224373658
vt 0.03646209190813188 0.955148811604095
vt 0.05969591170384074 0.937001257519232
vt 0.1605472525222134 0.9742563783456726
vt 0.61670703125 0.55625
vt 0.7242195312499999 0.55625
vt 0.7242195312499999 0.5625
vt 0.61670703125 0.5625
vt 0.40910576429678336 0.7227133604524583
vt 0.4311292017967834 0.7307289854524582
vt 0.3929729517967834 0.8407242979524583
vt 0.3693854517967834 0.8311461729524583
vt 0.7199515624999999 0.525
vt 0.7199515624999999 0.53125
vt 0.6044734375 0.53125
vt 0.6044734375 0.525
vt 0.0022497200392103123 0.72265625
vt 0.025687220039210312 0.72265625
vt 0.02592628253921031 0.838134375
vt 0.00048565753921031574 0.8390671875
vt 0.5 0.59375
vt 0.5 0.5874999999999999
vt 0.616425 0.5874999999999999
vt 0.616425 0.59375
vt 0.50038984375 0.5625
vt 0.50038984375 0.55625
vt 0.61670703125 0.55625
vt 0.61670703125 0.5625
vt 0.07863642320321665 0.8962951018921353
vt 0.08665096411350362 0.8742712698583051
vt 0.19632630883075672 0.9130143087544671
vt 0.18947428707024408 0.9354271460650149
vt 0.7321726562499999 0.665625
vt 0.7321726562499999 0.671875
vt 0.61462890625 0.671875
vt 0.61462890625 0.665625
vt 0.2768580924607897 0.9753588416968331
vt 0.276857560199733 0.9987963416907892
vt 0.15932008592050914 0.9976624224373658
vt 0.16054717993608403 0.9742577627983964
vn 1 0 -3.941291737419305e-15
vn -3.0531133177191797e-15 0 1
vn 5.989421321140263e-18 1 -4.678542624404e-18
vn 8.613167812820296e-17 -1 -6.728041088241989e-17
vn 0.34313704847899384 0 0.9392853485289361
vn -0.31326503964626007 0 -0.9496657385287874
vn 7.516069114693127e-18 1 -5.8710596292403825e-18
vn -0.9410488236832002 0 -0.33827076646447807
vn 4.4045059098072115e-17 -1 -3.440510782859615e-17
vn 0.9328168125740447 0 0.3603509319804785
vn 0 1 0
vn 0.002057055384843964 0 0.9999978842593337
vn -1.5022095886822765e-17 -1 5.854827030937197e-32
vn 0.015161049411113955 0 -0.9998850646853136
vn 0.9999554000655246 0 0.009444462917323258
vn 0 1 0
vn -0.9999537349278835 0 -0.00961914776767292
vn 2.2186712959340957e-31 -1 -7.379397044563093e-17
usemtl m_307e2b75-cbf8-ca2a-3df6-c0cde375c79d
f 53/137/35 51/138/35 52/139/35 54/140/35
f 57/141/36 55/142/36 56/143/36 58/144/36
f 40/145/37 48/146/37 47/147/37 39/148/37
f 41/149/38 50/150/38 49/151/38 42/152/38
f 39/153/39 47/154/39 50/155/39 41/156/39
f 42/157/40 49/158/40 48/159/40 40/160/40
f 43/161/41 47/162/41 48/163/41 44/164/41
f 44/165/42 48/166/42 49/167/42 46/168/42
f 46/169/43 49/170/43 50/171/43 45/172/43
f 45/173/44 50/174/44 47/175/44 43/176/44
f 51/177/45 53/178/45 40/179/45 39/180/45
f 52/181/46 51/182/46 39/183/46 41/184/46
f 54/185/47 52/186/47 41/187/47 42/188/47
f 53/189/48 54/190/48 42/191/48 40/192/48
f 55/193/49 57/194/49 45/195/49 43/196/49
f 56/197/50 55/198/50 43/199/50 44/200/50
f 58/201/51 56/202/51 44/203/51 46/204/51
f 57/205/52 58/206/52 46/207/52 45/208/52