# Made in Blockbench 4.9.4
mtllib SideWalk01_Square.mtl

o cuboid
v 0.4375 0.06875000000000009 0.5
v 0.4375 0.06875000000000009 -0.4375
v 0.4375 0 0.5
v 0.4375 0 -0.4375
v -0.5 0.06875000000000009 0.5
v -0.5 0.06875000000000009 -0.4375
v -0.5 0 0.5
v -0.5 0 -0.4375
vt 0.96875 1
vt 0.5 1
vt 0.5 0.96875
vt 0.96875 0.96875
vt 0.96875 0.90625
vt 0.96875 0.9375
vt 0.5 0.9375
vt 0.5 0.90625
vt 0 0.53125
vt 0.46875 0.53125
vt 0.46875 1
vt 0 1
vt 0.46875 0.03125
vt 0.46875 0.5
vt 0 0.5
vt 0 0.03125
vt 0.96875 0.84375
vt 0.96875 0.875
vt 0.5 0.875
vt 0.5 0.84375
vt 0.96875 0.8125
vt 0.5 0.8125
vt 0.5 0.78125
vt 0.96875 0.78125
vn 1 0 0
vn -1 0 0
vn 0 1 0
vn 0 -1 0
vn 0 0 1
vn 0 0 -1
usemtl m_bac56791-abb1-b781-7672-a1a424318127
f 2/1/1 1/2/1 3/3/1 4/4/1
f 7/5/2 5/6/2 6/7/2 8/8/2
f 5/9/3 1/10/3 2/11/3 6/12/3
f 4/13/4 3/14/4 7/15/4 8/16/4
f 3/17/5 1/18/5 5/19/5 7/20/5
f 6/21/6 2/22/6 4/23/6 8/24/6