# Made in Blockbench 4.9.4
mtllib SideWalk01_Corner_noBottom.mtl

o cuboid
v 0.4375 0.06875000000000009 0.5
v 0.4375 0.06875000000000009 -0.4375
v 0.4375 0 0.5
v 0.4375 0 -0.4375
v -0.5 0.06875000000000009 0.5
v -0.375 0.06875000000000009 -0.3125
v -0.5 0 0.5
v -0.375 0 -0.3125
v -0.03125 0.06875000000000009 0.5
v -0.03125 0.06875000000000009 -0.4375
v -0.03125 0 -0.4375
v -0.03125 0 0.5
v 0.4375 0.06875000000000009 0.03125
v 0.4375 0 0.03125
v -0.03125 0 0.03125
v -0.5 0 0.03125
v -0.5 0.06875000000000009 0.03125
v -0.03125 0.06875000000000009 0.03125
vt 0.5 0.965625
vt 0.734375 0.965625
vt 0.734375 1
vt 0.5 1
vt 0.9176140625 0.8125
vt 0.6832390625 0.8125
vt 0.6832390625 0.778125
vt 0.9176140625 0.778125
vt 0.46875 0.53125
vt 0.46875 0.765625
vt 0.234375 0.765625
vt 0.234375 0.53125
vt 0.234375 0.5
vt 0.234375 0.265625
vt 0.46875 0.265625
vt 0.46875 0.5
vt 0.96875 0.90625
vt 0.734375 0.90625
vt 0.734375 0.871875
vt 0.96875 0.871875
vt 0.5003546875 0.684375
vt 0.7347296875 0.684375
vt 0.7347296875 0.71875
vt 0.5003546875 0.71875
vt 0.234375 0.53125
vt 0.234375 0.765625
vt 0 0.765625
vt 0 0.53125
vt 0.9176140625 0.71875
vt 0.7347296875 0.71875
vt 0.7347296875 0.684375
vt 0.9176140625 0.684375
vt 0 0.5
vt 0 0.265625
vt 0.234375 0.265625
vt 0.234375 0.5
vt 0.5 0.871875
vt 0.734375 0.871875
vt 0.734375 0.90625
vt 0.5 0.90625
vt 0.96875 1
vt 0.734375 1
vt 0.734375 0.965625
vt 0.96875 0.965625
vt 0.46875 0.03125
vt 0.46875 0.265625
vt 0.234375 0.265625
vt 0.234375 0.03125
vt 0.234375 0.03125
vt 0.234375 0.265625
vt 0 0.265625
vt 0.0625 0.09375
vt 0.5003546875 0.778125
vt 0.6832390625 0.778125
vt 0.6832390625 0.8125
vt 0.5003546875 0.8125
vt 0.0625 0.9375
vt 0 0.765625
vt 0.234375 0.765625
vt 0.234375 1
vt 0.234375 1
vt 0.234375 0.765625
vt 0.46875 0.765625
vt 0.46875 1
vn 1 0 0
vn -1 0 0
vn 0 1 0
vn 0 -1 0
vn 0 0 1
vn 0 0 -1
vn 0 1 0
vn -0.34174306308670443 0 -0.9397934234884372
vn 0 -1 0
vn 0 0 1
vn 1 0 0
vn 0 -1 0
vn 0 -1 0
vn -0.9397934234884372 0 -0.34174306308670443
vn 0 1 0
vn 0 1 0
usemtl m_a4584dc8-88bf-7d76-dd65-6ba235c8ef4d
f 3/1/1 14/2/1 13/3/1 1/4/1
f 5/5/2 17/6/2 16/7/2 7/8/2
f 1/9/3 13/10/3 18/11/3 9/12/3
f 12/13/4 15/14/4 14/15/4 3/16/4
f 1/17/5 9/18/5 12/19/5 3/20/5
f 4/21/6 11/22/6 10/23/6 2/24/6
f 9/25/7 18/26/7 17/27/7 5/28/7
f 6/29/8 10/30/8 11/31/8 8/32/8
f 7/33/9 16/34/9 15/35/9 12/36/9
f 7/37/10 12/38/10 9/39/10 5/40/10
f 2/41/11 13/42/11 14/43/11 4/44/11
f 4/45/12 14/46/12 15/47/12 11/48/12
f 11/49/13 15/50/13 16/51/13 8/52/13
f 8/53/14 16/54/14 17/55/14 6/56/14
f 6/57/15 17/58/15 18/59/15 10/60/15
f 10/61/16 18/62/16 13/63/16 2/64/16
o cuboid
v -0.026285849458053512 0.06875000000000009 -0.4439954883716428
v -0.026831257926701796 0.06875000000000009 -0.506493108563153
v -0.026285849458053512 2.0816681711721685e-16 -0.4439954883716428
v -0.026831257926701796 2.0816681711721685e-16 -0.506493108563153
v -0.505402511969747 0.06875000000000009 0.030812236149956623
v -0.5679025119697463 0.06875000000000009 0.030812236149956568
v -0.505402511969747 -1.457167719820518e-16 0.030812236149956623
v -0.5679025119697463 -1.457167719820518e-16 0.030812236149956568
v -0.41799270541966305 0.06875000000000009 -0.36829801294732833
v -0.41799270541966305 0 -0.36829801294732833
v -0.3779607508751688 0 -0.31382090660578804
v -0.3779607508751688 0.06875000000000009 -0.31382090660578804
v -0.5065899562545961 0.06875000000000006 0.498597817531863
v -0.5690899562545955 0.06875000000000006 0.49859781753186294
v -0.5065899562545961 -1.8041124150158794e-16 0.498597817531863
v -0.5690899562545955 -1.8041124150158794e-16 0.49859781753186294
v 0.43562427323545233 0.06875000000000009 -0.4454910784512276
v 0.43562427323545233 2.0816681711721685e-16 -0.4454910784512276
v 0.435078864766804 0.06875000000000009 -0.5079886986427378
v 0.435078864766804 2.0816681711721685e-16 -0.5079886986427378
vt 0.21875 0.59375
vt 0.1875 0.59375
vt 0.1875 0.5625
vt 0.21875 0.5625
vt 0.40625 0.625
vt 0.40625 0.65625
vt 0.375 0.65625
vt 0.375 0.625
vt 0.6606065856850277 0.5564128668854307
vt 0.5287847106850277 0.7165659918854308
vt 0.5100347106850278 0.6884409918854307
vt 0.6313378356850278 0.5454691168854306
vt 0.912592146325997 0.4076360369517942
vt 0.7912824336728758 0.2646732228578019
vt 0.8100314506017212 0.23654626738858175
vt 0.9418614996334218 0.39669206137175994
vt 0.999996875 0.8125
vt 0.8125 0.8125
vt 0.8125 0.778125
vt 0.999996875 0.778125
vt 0.94970625 0.871875
vt 1.157134375 0.871875
vt 1.157134375 0.90625
vt 0.94970625 0.90625
vt 0.8079953125 1
vt 0.5948296875 1
vt 0.5948296875 0.965625
vt 0.8079953125 0.965625
vt 0.5968739101462979 0.234375
vt 0.8100314506017212 0.23654626738858175
vt 0.7912824336728758 0.2646732228578019
vt 0.6075622090201404 0.2637405735140388
vt 1.0778203125 0.684375
vt 1.2615421875 0.684375
vt 1.2615421875 0.71875
vt 1.0778203125 0.71875
vt 0.3263159606850278 0.6893847418854308
vt 0.5100347106850278 0.6884409918854307
vt 0.5287847106850277 0.7165659918854308
vt 0.31562846068502776 0.7187472418854307
vt 0.8439265625 0.71875
vt 0.8439265625 0.684375
vt 1.0778203125 0.684375
vt 1.0778203125 0.71875
vt 0.09563716431497227 0.6393087635286632
vt 0.10632566822640555 0.6099435054140939
vt 0.3263159606850278 0.6893847418854308
vt 0.3156274567735945 0.71875
vt 1.0418890625000001 0.965625
vt 1.0418890625000001 1
vt 0.8079953125 1
vt 0.8079953125 0.965625
vt 0.38757107516540207 0.34317948162683787
vt 0.37688285367400304 0.31381412071724246
vt 0.5968739101462979 0.234375
vt 0.6075621316376969 0.2637403609095954
vt 0.7110315856850278 0.3286972418854308
vt 0.7403003356850277 0.33964099188543073
vt 0.6606065856850277 0.5564128668854307
vt 0.6313378356850278 0.5454691168854306
vt 1.230953125 0.778125
vt 1.230953125 0.8125
vt 0.999996875 0.8125
vt 0.999996875 0.778125
vt 1.021554646325997 0.6134641619517942
vt 0.9922858963259968 0.6244079119517942
vt 0.912592146325997 0.4076360369517942
vt 0.9418608963259969 0.39669228695179426
vt 0.71875 0.90625
vt 0.71875 0.871875
vt 0.94970625 0.871875
vt 0.94970625 0.90625
vn 0.9999619230641713 0 -0.008726535498373043
vn -5.5511151231257815e-17 0 1
vn 0 1 0
vn 4.65351545745434e-16 -1 -3.4195891040354814e-16
vn 0.3471375772402786 0 0.9378142153261219
vn -0.3331161449502876 0 -0.9428858011304757
vn -0.9361412979655941 0 -0.35162404673641545
vn 3.2878929085406647e-16 -1 -2.416075087334449e-16
vn 0.9379260420462453 0 0.34683532065155226
vn 0 1 0
vn 0.9999967781840595 0 0.0025384289434794423
vn 0 1 5.933396992193502e-17
vn -0.9999967781840595 0 -0.0025384289434795537
vn 3.0814879110195774e-33 -1 -7.416746240241876e-17
vn 0 1 0
vn 0.0032378208802737443 0 0.9999947582442357
vn 0 -1 0
vn -0.0032378208802737443 0 -0.9999947582442358
usemtl none
f 37/65/17 35/66/17 36/67/17 38/68/17
f 33/69/18 31/70/18 32/71/18 34/72/18
f 20/73/19 27/74/19 30/75/19 19/76/19
f 21/77/20 29/78/20 28/79/20 22/80/20
f 19/81/21 30/82/21 29/83/21 21/84/21
f 22/85/22 28/86/22 27/87/22 20/88/22
f 24/89/23 27/90/23 28/91/23 26/92/23
f 26/93/24 28/94/24 29/95/24 25/96/24
f 25/97/25 29/98/25 30/99/25 23/100/25
f 23/101/26 30/102/26 27/103/26 24/104/26
f 31/105/27 33/106/27 25/107/27 23/108/27
f 32/109/28 31/110/28 23/111/28 24/112/28
f 34/113/29 32/114/29 24/115/29 26/116/29
f 33/117/30 34/118/30 26/119/30 25/120/30
f 35/121/31 37/122/31 20/123/31 19/124/31
f 36/125/32 35/126/32 19/127/32 21/128/32
f 38/129/33 36/130/33 21/131/33 22/132/33
f 37/133/34 38/134/34 22/135/34 20/136/34
o cuboid
v -0.027335897902556083 0.025000000000000078 -0.5084655615573755
v -0.031071350886682864 0.025000000000000078 -0.6102262663330719
v -0.027335897902556083 4.336808689942018e-17 -0.5084655615573755
v -0.031071350886682864 4.336808689942018e-17 -0.6102262663330719
v -0.571805742110167 0.025000000000000085 0.030037475921174422
v -0.665427260993408 0.025000000000000085 0.025130980023398364
v -0.571805742110167 -2.42861286636753e-17 0.030037475921174422
v -0.665427260993408 -2.42861286636753e-17 0.025130980023398364
v -0.4190615183675562 0.02500000000000008 -0.36536147350737247
v -0.4916545214882923 0.02500000000000008 -0.4582942766390585
v -0.4916545214882923 0 -0.4582942766390585
v -0.4190615183675562 0 -0.36536147350737247
v 0.4345766045994389 0.025000000000000078 -0.5094157431683118
v 0.4345766045994389 3.642919299551295e-17 -0.5094157431683118
v 0.4345766045994386 0.025000000000000078 -0.6031657431683107
v 0.4345766045994386 3.642919299551295e-17 -0.6031657431683107
v -0.5761999431018211 0.025000000000000085 0.4952841552763544
v -0.6699499431018207 0.025000000000000085 0.4952841552763541
v -0.5761999431018211 -5.898059818321144e-17 0.4952841552763544
v -0.6699499431018207 -5.898059818321144e-17 0.4952841552763541
vt 0.34375 0.625
vt 0.28125 0.625
vt 0.28125 0.59375
vt 0.34375 0.59375
vt 0.0625 0.96875
vt 0.0625 1
vt 0 1
vt 0 0.96875
vt 0.7859459035935668 0.6814485959049165
vt 0.6389262631507105 0.875
vt 0.6076751536359277 0.825000554399623
vt 0.7387719530497667 0.6622927720553209
vt 0.05185256507842062 0.67626875
vt 0.11939182340768151 0.874002515038464
vt 0.07292418381626381 0.9102976232081901
vt 0.0009718544464328849 0.6781343552233938
vt 1.208946875 0.0625
vt 1 0.0625
vt 1 0.050000000000000044
vt 1.208946875 0.050000000000000044
vt 1.23285 0.17499999999999982
vt 1.47590625 0.17500000000000004
vt 1.47590625 0.1875
vt 1.23285 0.1874999999999999
vt 0.39265261766151344 0.8260286175089341
vt 0.6076751536359277 0.825000554399623
vt 0.6389262631507105 0.875
vt 0.3789477837913626 0.8708568773475011
vt 1.2292578125 0.34375
vt 0.9692484375 0.34375
vt 0.9692484375 0.33125000000000004
vt 1.2292578125 0.33125000000000004
vt 0.3186401718410182 0.9953248448747316
vt 0.07292418381626375 0.9102976232081901
vt 0.11939182340768148 0.874002515038464
vt 0.3210945050444268 0.9485127566913452
vt 1.2334140625 0.11250000000000004
vt 1.4484390624999999 0.11250000000000004
vt 1.4484390624999999 0.125
vt 1.2334140625 0.125
vt 0.8182115285935667 0.44542672090491653
vt 0.8622584035935668 0.46145797090491647
vt 0.7859459035935668 0.6814485959049165
vt 0.7387709035935668 0.6622923459049165
vt 1.4399031249999998 0.050000000000000044
vt 1.4399031249999998 0.0625
vt 1.208946875 0.0625
vt 1.208946875 0.050000000000000044
vt 0.0044994400784206245 0.4453125
vt 0.051374440078420625 0.4453125
vt 0.05185256507842062 0.67626875
vt 0.0009713150784206315 0.678134375
vt 1 0.1874999999999999
vt 1 0.17499999999999982
vt 1.23285 0.17499999999999982
vt 1.23285 0.1874999999999999
vt 1.0007796875 0.125
vt 1.0007796875 0.11250000000000004
vt 1.2334140625 0.11250000000000004
vt 1.2334140625 0.125
vt 0.1572728464064333 0.7925902037842707
vt 0.17330192822700724 0.7485425397166102
vt 0.39265261766151344 0.8260286175089341
vt 0.37894857414048816 0.8708542921300297
vt 1.4643453124999999 0.33125000000000004
vt 1.4643453124999999 0.34375
vt 1.2292578125 0.34375
vt 1.2292578125 0.33125000000000004
vt 0.5537161849215794 0.950717683393666
vt 0.553715120399466 0.9975926833815785
vt 0.3186401718410183 0.9953248448747316
vt 0.32109435987216806 0.9485155255967929
vn 1 0 -3.941291737419305e-15
vn -3.0531133177191797e-15 0 1
vn 5.989421321140263e-18 1 -4.678542624404e-18
vn 8.613167812820296e-17 -1 -6.728041088241989e-17
vn 0.34313704847899384 0 0.9392853485289361
vn -0.31326503964626007 0 -0.9496657385287874
vn 7.516069114693127e-18 1 -5.8710596292403825e-18
vn -0.9410488236832002 0 -0.33827076646447807
vn 4.4045059098072115e-17 -1 -3.440510782859615e-17
vn 0.9328168125740447 0 0.3603509319804785
vn 0 1 0
vn 0.002057055384843964 0 0.9999978842593337
vn -1.5022095886822765e-17 -1 5.854827030937197e-32
vn 0.015161049411113955 0 -0.9998850646853136
vn 0.9999554000655246 0 0.009444462917323258
vn 0 1 0
vn -0.9999537349278835 0 -0.00961914776767292
vn 2.2186712959340957e-31 -1 -7.379397044563093e-17
usemtl none
f 53/137/35 51/138/35 52/139/35 54/140/35
f 57/141/36 55/142/36 56/143/36 58/144/36
f 40/145/37 48/146/37 47/147/37 39/148/37
f 41/149/38 50/150/38 49/151/38 42/152/38
f 39/153/39 47/154/39 50/155/39 41/156/39
f 42/157/40 49/158/40 48/159/40 40/160/40
f 43/161/41 47/162/41 48/163/41 44/164/41
f 44/165/42 48/166/42 49/167/42 46/168/42
f 46/169/43 49/170/43 50/171/43 45/172/43
f 45/173/44 50/174/44 47/175/44 43/176/44
f 51/177/45 53/178/45 40/179/45 39/180/45
f 52/181/46 51/182/46 39/183/46 41/184/46
f 54/185/47 52/186/47 41/187/47 42/188/47
f 53/189/48 54/190/48 42/191/48 40/192/48
f 55/193/49 57/194/49 45/195/49 43/196/49
f 56/197/50 55/198/50 43/199/50 44/200/50
f 58/201/51 56/202/51 44/203/51 46/204/51
f 57/205/52 58/206/52 46/207/52 45/208/52