# Made in Blockbench 4.9.4
mtllib SubwayPillar.mtl

o cuboid
v 0.125 1.625 0.125
v 0.125 1.625 -0.125
v 0.125 0 0.125
v 0.125 0 -0.125
v -0.125 1.625 0.125
v -0.125 1.625 -0.125
v -0.125 0 0.125
v -0.125 0 -0.125
v 0.125 0.0625 -0.125
v -0.125 0.0625 -0.125
v -0.125 0.0625 0.125
v 0.125 0.0625 0.125
v -0.15625 0 0.15625
v -0.15625 0.0625 -0.15625
v -0.15625 0.0625 0.15625
v -0.15625 0 -0.15625
v 0.15625 0.0625 -0.15625
v 0.15625 0 -0.15625
v 0.15625 0.0625 0.15625
v 0.15625 0 0.15625
v -0.125 1.5624999999999996 -0.125
v -0.125 1.5624999999999996 0.125
v 0.125 1.5624999999999996 0.125
v 0.125 1.5624999999999996 -0.125
v -0.15625 1.625 0.15625
v -0.15625 1.5624999999999996 0.15625
v 0.15625 1.5624999999999996 0.15625
v 0.15625 1.625 0.15625
v -0.15625 1.625 -0.15625
v -0.15625 1.5624999999999996 -0.15625
v 0.15625 1.5624999999999996 -0.15625
v 0.15625 1.625 -0.15625
vt 0.78125 0.21875
vt 0.78125 0.25
vt 0.625 0.25
vt 0.625 0.21875
vt 0.15625 0.1875
vt 0.15625 0.21875
vt 0 0.21875
vt 0 0.1875
vt 0.640625 0.859375
vt 0.765625 0.859375
vt 0.765625 0.984375
vt 0.640625 0.984375
vt 0.765625 0.671875
vt 0.765625 0.796875
vt 0.640625 0.796875
vt 0.640625 0.671875
vt 0.34375 0.1875
vt 0.34375 0.21875
vt 0.1875 0.21875
vt 0.1875 0.1875
vt 0.53125 0.1875
vt 0.53125 0.21875
vt 0.375 0.21875
vt 0.375 0.1875
vt 0.125 0.25
vt 0.125 1
vt 0 1
vt 0 0.25
vt 0.28125 0.25
vt 0.28125 1
vt 0.15625 1
vt 0.15625 0.25
vt 0.4375 0.25
vt 0.4375 1
vt 0.3125 1
vt 0.3125 0.25
vt 0.59375 0.25
vt 0.59375 1
vt 0.46875 1
vt 0.46875 0.25
vt 0.625 0.625
vt 0.625 0.46875
vt 0.640625 0.484375
vt 0.640625 0.609375
vt 0.625 0.8125
vt 0.625 0.65625
vt 0.640625 0.671875
vt 0.640625 0.796875
vt 0.78125 0.625
vt 0.625 0.625
vt 0.640625 0.609375
vt 0.765625 0.609375
vt 0.625 0.65625
vt 0.78125 0.65625
vt 0.765625 0.671875
vt 0.640625 0.671875
vt 0.78125 0.46875
vt 0.78125 0.625
vt 0.765625 0.609375
vt 0.765625 0.484375
vt 0.78125 0.65625
vt 0.78125 0.8125
vt 0.765625 0.796875
vt 0.765625 0.671875
vt 0.625 0.46875
vt 0.78125 0.46875
vt 0.765625 0.484375
vt 0.640625 0.484375
vt 0.78125 0.8125
vt 0.625 0.8125
vt 0.640625 0.796875
vt 0.765625 0.796875
vt 0.8125 1
vt 0.8125 0.96875
vt 0.96875 0.96875
vt 0.96875 1
vt 0.8125 0.9375
vt 0.8125 0.90625
vt 0.96875 0.90625
vt 0.96875 0.9375
vt 0.8125 0.875
vt 0.8125 0.84375
vt 0.96875 0.84375
vt 0.96875 0.875
vt 0.8125 0.8125
vt 0.8125 0.78125
vt 0.96875 0.78125
vt 0.96875 0.8125
vt 0.78125 0.4375
vt 0.625 0.4375
vt 0.640625 0.421875
vt 0.765625 0.421875
vt 0.625 0.84375
vt 0.78125 0.84375
vt 0.765625 0.859375
vt 0.640625 0.859375
vt 0.625 0.4375
vt 0.625 0.28125
vt 0.640625 0.296875
vt 0.640625 0.421875
vt 0.625 1
vt 0.625 0.84375
vt 0.640625 0.859375
vt 0.640625 0.984375
vt 0.78125 0.28125
vt 0.78125 0.4375
vt 0.765625 0.421875
vt 0.765625 0.296875
vt 0.78125 0.84375
vt 0.78125 1
vt 0.765625 0.984375
vt 0.765625 0.859375
vt 0.625 0.28125
vt 0.78125 0.28125
vt 0.765625 0.296875
vt 0.640625 0.296875
vt 0.78125 1
vt 0.625 1
vt 0.640625 0.984375
vt 0.765625 0.984375
vn 1 0 0
vn -1 0 0
vn 0 1 0
vn 0 -1 0
vn 0 0 1
vn 0 0 -1
vn 0 0 -1
vn -1 0 0
vn 0 0 1
vn 1 0 0
vn 0 1 0
vn 0 -1 0
vn 0 1 0
vn 0 -1 0
vn 0 1 0
vn 0 -1 0
vn 0 1 0
vn 0 -1 0
vn -1 0 0
vn 0 0 1
vn 1 0 0
vn 0 0 -1
vn 0 -1 0
vn 0 1 0
vn 0 -1 0
vn 0 1 0
vn 0 -1 0
vn 0 1 0
vn 0 -1 0
vn 0 1 0
usemtl m_6839c6fa-a7e6-6890-1bef-f08ec93db668
f 18/1/1 17/2/1 19/3/1 20/4/1
f 13/5/2 15/6/2 14/7/2 16/8/2
f 5/9/3 1/10/3 2/11/3 6/12/3
f 4/13/4 3/14/4 7/15/4 8/16/4
f 20/17/5 19/18/5 15/19/5 13/20/5
f 16/21/6 14/22/6 17/23/6 18/24/6
f 10/25/7 21/26/7 24/27/7 9/28/7
f 11/29/8 22/30/8 21/31/8 10/32/8
f 12/33/9 23/34/9 22/35/9 11/36/9
f 9/37/10 24/38/10 23/39/10 12/40/10
f 14/41/11 15/42/11 11/43/11 10/44/11
f 13/45/12 16/46/12 8/47/12 7/48/12
f 17/49/13 14/50/13 10/51/13 9/52/13
f 16/53/14 18/54/14 4/55/14 8/56/14
f 19/57/15 17/58/15 9/59/15 12/60/15
f 18/61/16 20/62/16 3/63/16 4/64/16
f 15/65/17 19/66/17 12/67/17 11/68/17
f 20/69/18 13/70/18 7/71/18 3/72/18
f 29/73/19 30/74/19 26/75/19 25/76/19
f 25/77/20 26/78/20 27/79/20 28/80/20
f 28/81/21 27/82/21 31/83/21 32/84/21
f 32/85/22 31/86/22 30/87/22 29/88/22
f 27/89/23 26/90/23 22/91/23 23/92/23
f 25/93/24 28/94/24 1/95/24 5/96/24
f 26/97/25 30/98/25 21/99/25 22/100/25
f 29/101/26 25/102/26 5/103/26 6/104/26
f 31/105/27 27/106/27 23/107/27 24/108/27
f 28/109/28 32/110/28 2/111/28 1/112/28
f 30/113/29 31/114/29 24/115/29 21/116/29
f 32/117/30 29/118/30 6/119/30 2/120/30